<svg xmlns="http://www.w3.org/2000/svg" width="17.827" height="17.83" viewBox="0 0 17.827 17.83">
  <g id="Fb" transform="translate(-6 -6)">
    <path id="Path_1799" data-name="Path 1799" d="M182.821,104.838a.353.353,0,0,1,.357-.357h2.172v-2.054h-2.19a.355.355,0,0,1-.357-.353l-.011-1.623v0a1.182,1.182,0,0,1,1.18-1.18h1.373V97h-3.1a1.718,1.718,0,0,0-1.715,1.715l.018,3.352a.353.353,0,0,1-.357.357H178.1v2.054h2.1a.355.355,0,0,1,.357.357l.029,6.037h2.264Z" transform="translate(-165.963 -87.755)" fill="none"/>
    <path id="Path_1800" data-name="Path 1800" d="M41.623,26H26.781a.781.781,0,0,0-.781.781V41.619a.781.781,0,0,0,.781.781H33.2l-.029-5.681H31.064a.358.358,0,0,1-.357-.357V33.6a.358.358,0,0,1,.357-.357h2.09l-.014-3a2.429,2.429,0,0,1,2.428-2.428h3.459a.358.358,0,0,1,.357.357v2.978a.358.358,0,0,1-.357.357H37.3a.469.469,0,0,0-.467.467l.007,1.266h2.19a.358.358,0,0,1,.357.357v2.767a.358.358,0,0,1-.357.357H36.859l.032,5.681h4.732a.781.781,0,0,0,.781-.781V26.781A.781.781,0,0,0,41.623,26Z" transform="translate(-19.287 -19.287)" fill="none"/>
    <path id="Path_1801" data-name="Path 1801" d="M22.336,6H7.494A1.5,1.5,0,0,0,6,7.494V22.332a1.5,1.5,0,0,0,1.494,1.5H22.332a1.5,1.5,0,0,0,1.494-1.494V7.494A1.491,1.491,0,0,0,22.336,6ZM14.6,17.08a.358.358,0,0,0-.357-.357h-2.1V14.669h2.09a.368.368,0,0,0,.253-.1.353.353,0,0,0,.1-.253l-.018-3.352a1.718,1.718,0,0,1,1.715-1.715h3.1v2.264H18.01a1.179,1.179,0,0,0-1.18,1.18v0l.011,1.623a.355.355,0,0,0,.357.353h2.186v2.054H17.212a.368.368,0,0,0-.253.1.353.353,0,0,0-.1.253l.036,6.034H14.626Zm8.519,5.256a.781.781,0,0,1-.781.781H17.6l-.032-5.681H19.74a.358.358,0,0,0,.357-.357V14.312a.358.358,0,0,0-.357-.357H17.554l-.007-1.266a.469.469,0,0,1,.467-.467h1.73a.358.358,0,0,0,.357-.357V8.888a.358.358,0,0,0-.357-.357H16.284a2.431,2.431,0,0,0-2.428,2.428l.014,3h-2.09a.358.358,0,0,0-.357.357V17.08a.358.358,0,0,0,.357.357h2.108l.029,5.681H7.5a.781.781,0,0,1-.781-.781V7.494a.775.775,0,0,1,.777-.781H22.332a.781.781,0,0,1,.781.781V22.336Z" fill="#fff"/>
  </g>
</svg>
