<svg id="Outline_Color_copy_2" xmlns="http://www.w3.org/2000/svg" width="17.83" height="17.83" viewBox="0 0 17.83 17.83">
  <path id="Path_1797" data-name="Path 1797" d="M15.6.557a1.674,1.674,0,0,1,1.672,1.672V15.6A1.674,1.674,0,0,1,15.6,17.273H2.229A1.674,1.674,0,0,1,.557,15.6V2.229A1.674,1.674,0,0,1,2.229.557H15.6M15.6,0H2.229A2.235,2.235,0,0,0,0,2.229V15.6A2.235,2.235,0,0,0,2.229,17.83H15.6A2.235,2.235,0,0,0,17.83,15.6V2.229A2.235,2.235,0,0,0,15.6,0Z" fill="#fff"/>
  <path id="Path_1798" data-name="Path 1798" d="M16.949,16.9V13.477c0-1.832-.978-2.685-2.282-2.685a1.966,1.966,0,0,0-1.786.985v-.845H10.9c.026.56,0,5.964,0,5.964h1.982V13.565a1.355,1.355,0,0,1,.065-.483,1.085,1.085,0,0,1,1.017-.725c.718,0,1,.547,1,1.348V16.9h1.982Zm-8.14-6.778a1.034,1.034,0,1,0,.013-2.061A1.033,1.033,0,1,0,8.8,10.118ZM9.8,16.9V10.932H7.819V16.9H9.8Z" transform="translate(-3.41 -3.568)" fill="#fff"/>
</svg>
