<svg xmlns="http://www.w3.org/2000/svg" width="21.911" height="17.83" viewBox="0 0 21.911 17.83">
  <path id="twitter" d="M42.011,66.113a9.089,9.089,0,0,1-2.582.71,4.511,4.511,0,0,0,1.978-2.489,8.932,8.932,0,0,1-2.856,1.091A4.494,4.494,0,0,0,30.775,68.5a4.4,4.4,0,0,0,.116,1.026,12.75,12.75,0,0,1-9.273-4.7,4.508,4.508,0,0,0,1.393,6.008,4.384,4.384,0,0,1-2.034-.562v.056a4.5,4.5,0,0,0,3.608,4.411,4.525,4.525,0,0,1-1.184.158,4.241,4.241,0,0,1-.845-.084,4.5,4.5,0,0,0,4.2,3.125,9.013,9.013,0,0,1-5.586,1.927A9.113,9.113,0,0,1,20.1,79.8a12.566,12.566,0,0,0,6.881,2.034,12.717,12.717,0,0,0,12.8-12.806c0-.2,0-.39-.014-.58A9.23,9.23,0,0,0,42.011,66.113ZM39.328,67.84,39,68.077l.019.4c.009.176.014.362.014.548a12.276,12.276,0,0,1-.789,4.249,12.488,12.488,0,0,1-2.322,3.891,11.337,11.337,0,0,1-3.766,2.823,12.19,12.19,0,0,1-5.177,1.1,11.959,11.959,0,0,1-3.924-.659,9.7,9.7,0,0,0,4.142-1.9l1.639-1.286L26.754,77.2a3.748,3.748,0,0,1-2.986-1.574,5.161,5.161,0,0,0,1-.172l2.818-.938-2.865-.506a3.755,3.755,0,0,1-2.846-2.591,5.708,5.708,0,0,0,1.11.153s1.477.065,2.591,0c-.6-.288-2.154-1.356-2.154-1.356a3.76,3.76,0,0,1-1.672-3.13,4.018,4.018,0,0,1,.1-.882,13.515,13.515,0,0,0,8.994,4.058l.984.051-.223-.961a3.719,3.719,0,0,1-.1-.859A3.755,3.755,0,0,1,38,65.932l.283.3.4-.079c.209-.042.413-.088.618-.144a5.215,5.215,0,0,1-.511.5c-.209.186-.826.766-.826.766a6.773,6.773,0,0,0,.98.232,3.762,3.762,0,0,0,.878-.037C39.7,67.58,39.467,67.742,39.328,67.84Z" transform="translate(-20.1 -64)" fill="#fff"/>
</svg>
