<svg xmlns="http://www.w3.org/2000/svg" width="17.754" height="17.83" viewBox="0 0 17.754 17.83">
  <path id="whatsapp" d="M9.437,18.33a8.452,8.452,0,0,1-4.729-1.4l-3.1,1.008a.341.341,0,0,1-.388-.078.341.341,0,0,1-.078-.388L2.15,14.531A8.984,8.984,0,0,1,.6,9.493,8.868,8.868,0,0,1,9.437.5a8.966,8.966,0,0,1,8.915,8.915A8.966,8.966,0,0,1,9.437,18.33ZM4.786,16.159a.285.285,0,0,1,.233.078,8.25,8.25,0,0,0,4.5,1.318A8.14,8.14,0,1,0,1.3,9.415a8.261,8.261,0,0,0,1.55,4.806.581.581,0,0,1,.078.388L2.073,17.09l2.558-.775C4.708,16.159,4.708,16.159,4.786,16.159Zm7.442-1.55a8.243,8.243,0,0,1-2.636-.7,10.748,10.748,0,0,1-4.341-3.8l-.078-.078A5.712,5.712,0,0,1,4.088,7.167a3.44,3.44,0,0,1,.93-2.326,1.578,1.578,0,0,1,1.163-.465h.233c.465,0,.7.155.93.7l.233.465c.233.543.543,1.24.543,1.318a.7.7,0,0,1,0,.775,1.622,1.622,0,0,1-.31.465l-.233.233-.233.233c.155.078.078.078.078.078a9.29,9.29,0,0,0,1.318,1.628,8.919,8.919,0,0,0,1.783,1.163H10.6c.078,0,.078.078.155,0a3.34,3.34,0,0,0,.543-.775l.078-.078a.919.919,0,0,1,.7-.388.843.843,0,0,1,.388.078,11.249,11.249,0,0,1,1.705.853l.155.078c.233.078.388.155.465.388a2.444,2.444,0,0,1-.078,1.473,2.738,2.738,0,0,1-1.938,1.473c-.155,0-.31.078-.543.078ZM6.259,5.151a1.46,1.46,0,0,0-.62.155,2.384,2.384,0,0,0-.775,1.783,4.309,4.309,0,0,0,.93,2.326l.078.078A9.631,9.631,0,0,0,9.9,13.059a7.036,7.036,0,0,0,2.326.7.581.581,0,0,0,.388-.078,2.355,2.355,0,0,0,1.4-.93,2.169,2.169,0,0,0,.155-.853c-.078,0-.078-.078-.155-.078l-.155-.078a10.775,10.775,0,0,0-1.628-.775c-.078,0-.078-.078-.155.078L12,11.121c-.233.31-.465.62-.62.853a.952.952,0,0,1-1.008.155H10.29a8.563,8.563,0,0,1-2.016-1.24A8.6,8.6,0,0,1,6.8,9.1.763.763,0,0,1,6.956,8.1a.588.588,0,0,1,.155-.31l.155-.155a.813.813,0,0,0,.233-.31V7.167a7.169,7.169,0,0,1-.62-1.318l-.155-.465a.959.959,0,0,0-.155-.233h-.31Z" transform="translate(-0.599 -0.5)" fill="#fff"/>
</svg>
