<svg xmlns="http://www.w3.org/2000/svg" width="22.481" height="17.83" viewBox="0 0 22.481 17.83">
  <path id="youtube" d="M28.264,72A4.264,4.264,0,0,0,24,76.264v9.3a4.264,4.264,0,0,0,4.264,4.264H42.218a4.264,4.264,0,0,0,4.264-4.264v-9.3A4.264,4.264,0,0,0,42.218,72Zm-3.488,4.264a3.489,3.489,0,0,1,3.488-3.488H42.218a3.489,3.489,0,0,1,3.488,3.488v9.3a3.489,3.489,0,0,1-3.488,3.488H28.264a3.489,3.489,0,0,1-3.488-3.488Zm9.067.639a1.163,1.163,0,0,0-1.7,1.03V83.9a1.163,1.163,0,0,0,1.7,1.03l5.694-2.983a1.163,1.163,0,0,0,0-2.06Zm-.927,1.03a.388.388,0,0,1,.567-.343l5.694,2.983a.388.388,0,0,1,0,.687l-5.694,2.983a.388.388,0,0,1-.567-.343Z" transform="translate(-24 -72)" fill="#fff" fill-rule="evenodd"/>
</svg>
