<svg xmlns="http://www.w3.org/2000/svg" width="510.594" height="385.489" viewBox="0 0 510.594 385.489">
  <g id="Login_illustration_teamwork" data-name="Login illustration teamwork" transform="translate(-824.824 -4524.2)">
    <path id="floor" d="M1367.709,5856.5H862.889a2.9,2.9,0,0,1-2.887-2.887h0a2.9,2.9,0,0,1,2.887-2.887h504.82a2.9,2.9,0,0,1,2.887,2.887h0A2.9,2.9,0,0,1,1367.709,5856.5Z" transform="translate(-35.178 -946.814)" fill="#414a82"/>
    <g id="trees" transform="translate(860.716 4766.325)">
      <g id="tree" transform="translate(0)">
        <g id="Group_10426" data-name="Group 10426">
          <path id="Path_33728" data-name="Path 33728" d="M1083.153,5497.417a3.586,3.586,0,0,1-.015,3.357c-.948,1.794-3,3.145-4.758,4.591-5.662,4.649-8.683,10.848-8.332,17.1.186,3.315,1.281,6.628,1.165,9.935-.192,5.48-3.9,10.733-9.924,14.066-5.567,3.08-13.029,4.474-20.29,3.837-1.646-4-3.539-8.938.122-12.184,1.2-1.068,2.9-1.817,4.18-2.84,5.919-4.725.876-12.442,2.813-18.656,1.439-4.619,6.636-8.032,11.591-11.163l12.405-7.838c2.442-1.543,5.84-3.175,8.871-2.028A3.965,3.965,0,0,1,1083.153,5497.417Z" transform="translate(-973.667 -5459.387)" fill="#a6b78a"/>
          <path id="Path_33729" data-name="Path 33729" d="M1084.409,5532.548c-1.848,9.525-2.054,19.878-10.27,26.3a21.049,21.049,0,0,1-9.064,4.037,34.637,34.637,0,0,0,14.813-3.937c6.025-3.333,9.731-8.587,9.924-14.067.116-3.307-.979-6.62-1.165-9.935-.35-6.252,2.67-12.452,8.332-17.1,1.761-1.446,3.811-2.8,4.758-4.591a3.625,3.625,0,0,0,.238-.56C1093.161,5515.6,1086.272,5521.543,1084.409,5532.548Z" transform="translate(-992.265 -5471.863)" fill="#8da164"/>
          <path id="Path_33730" data-name="Path 33730" d="M820.671,5485.276q5.882-6.97,12.161-13.587a14.5,14.5,0,0,1,3.955-3.264c3.822-1.866,8.486-.083,11.759,2.646s5.749,6.339,9.092,8.979c3,2.369,6.712,3.979,8.91,7.117,2.358,3.368,2.476,7.776,2.558,11.9q.325,16.375,1.739,32.7a47.833,47.833,0,0,1-4.934-16.592c-.421-3.929-.384-8.029-2.044-11.609-2.073-4.469-6.417-7.346-10.555-9.982-4.017-2.558-8.618-5.218-13.242-4.115-3.03.723-5.442,2.944-8.049,4.66a27.027,27.027,0,0,1-21.305,3.571Q815.536,5491.362,820.671,5485.276Z" transform="translate(-810.716 -5439.72)" fill="#a6b78a"/>
          <path id="Path_33731" data-name="Path 33731" d="M868.148,5557.9c-1.643-7.868.206-15.115-1.232-22.984-1.027-4.556-5.841-7.452-9.862-11.505s-10.813-10.741-21.973-7.337c-5.615,1.712-15.43,11.192-24.058,15.121-.1.133-.2.264-.306.4a27.031,27.031,0,0,0,21.305-3.572c2.607-1.716,5.018-3.938,8.049-4.66,4.623-1.1,9.225,1.557,13.242,4.116,4.138,2.635,8.481,5.513,10.555,9.981,1.661,3.581,1.623,7.681,2.044,11.61a47.858,47.858,0,0,0,2.674,11.414A8.649,8.649,0,0,0,868.148,5557.9Z" transform="translate(-810.716 -5473.611)" fill="#8da164"/>
          <path id="Path_33732" data-name="Path 33732" d="M1037.65,5370.175c.018-.039.036-.077.054-.115-6.765,3.6-9.906,11.557-11.8,19.027a124.047,124.047,0,0,0-3.022,16.551,47.91,47.91,0,0,0,.233,15.316c.9,4.235,2.737,8.351,2.577,12.678-.206,5.613-3.74,10.632-4.271,16.222a15.7,15.7,0,0,0,4.285,12.182l5.844-3.264a4.119,4.119,0,0,0,2.138-2.017c.385-1.159-.3-2.365-.807-3.476-1.945-4.267-1.374-9.258-.215-13.806,1.79-7.024,4.863-13.641,7.17-20.51s3.851-14.25,2.442-21.362c-.927-4.682-3.086-9.012-4.519-13.562C1036.337,5379.529,1035.678,5374.46,1037.65,5370.175Z" transform="translate(-961.059 -5370.06)" fill="#a6b78a"/>
        </g>
        <g id="Group_10428" data-name="Group 10428" transform="translate(50.65 89.609)">
          <g id="Group_10427" data-name="Group 10427">
            <rect id="Rectangle_3105" data-name="Rectangle 3105" width="35.066" height="47.516" fill="#414a82"/>
          </g>
        </g>
      </g>
      <rect id="Rectangle_3106" data-name="Rectangle 3106" width="43.419" height="4.501" transform="translate(46.362 133.58)" fill="#6b6f88"/>
    </g>
    <g id="character" transform="translate(1070.079 4524.2)">
      <g id="Group_10430" data-name="Group 10430" transform="translate(47.195 53.056)">
        <g id="Group_10429" data-name="Group 10429">
          <rect id="Rectangle_3107" data-name="Rectangle 3107" width="22.975" height="27.328" fill="#f0b297"/>
          <path id="Path_33733" data-name="Path 33733" d="M1904.647,4709.55v8.4c-5.713,4.623-13.436,7.746-22.975,8.4v-16.81Z" transform="translate(-1881.672 -4709.55)" fill="#d1785e"/>
        </g>
      </g>
      <g id="Group_10437" data-name="Group 10437" transform="translate(36.679 9.766)">
        <g id="Group_10432" data-name="Group 10432">
          <g id="Group_10431" data-name="Group 10431" transform="translate(0 27.216)">
            <path id="Path_33734" data-name="Path 33734" d="M1964.141,4665.781a4.411,4.411,0,0,0,3.089-.4,10.212,10.212,0,0,0,2.5-1.893c1.986-1.913,3.833-4.322,3.692-7.025a3.372,3.372,0,0,0-1.06-2.437,3.223,3.223,0,0,0-3.163-.4,5.379,5.379,0,0,0-2.462,2.12Z" transform="translate(-1930.018 -4653.396)" fill="#f0b297"/>
            <path id="Path_33735" data-name="Path 33735" d="M1854.221,4665.781a4.41,4.41,0,0,1-3.089-.4,10.2,10.2,0,0,1-2.5-1.893c-1.986-1.913-3.833-4.322-3.692-7.025a3.371,3.371,0,0,1,1.06-2.437,3.223,3.223,0,0,1,3.163-.4,5.38,5.38,0,0,1,2.462,2.12Z" transform="translate(-1844.934 -4653.396)" fill="#f0b297"/>
          </g>
          <path id="Path_33736" data-name="Path 33736" d="M1887.4,4599.227c.786-8.453,2.99-13.381,4.352-18.265.973-3.659,1.958-9.909-2.3-15.419-4.2-5.726-14.754-8.979-24.414-6.241-9.729,2.741-15.125,8.429-13.947,14.9.6,3.877,1.153,9.24,1.8,13.239.538,3.325-.474,6.659.756,9.9,2.29,5.574,11.138,15.35,18.107,15.35C1877.457,4612.692,1886.859,4602.915,1887.4,4599.227Z" transform="translate(-1849.219 -4558.316)" fill="#f0b297"/>
        </g>
        <path id="Path_33737" data-name="Path 33737" d="M1924.9,4670.061a3.054,3.054,0,0,1-.208.468.9.9,0,0,1-.317.387c-.142.076-.358.022-.525-.221a1.05,1.05,0,0,1-.166-.465,1.371,1.371,0,0,1,.067-.589,1.345,1.345,0,0,1,.316-.5,1.011,1.011,0,0,1,.418-.251c.28-.08.48.018.543.17a.907.907,0,0,1,0,.5A3.058,3.058,0,0,1,1924.9,4670.061Z" transform="translate(-1901.14 -4637.22)" fill="#f2f2f2" style="mix-blend-mode: soft-light;isolation: isolate"/>
        <path id="Path_33738" data-name="Path 33738" d="M1918.388,4668.843c-.027-.116-.05-.22-.068-.312s-.032-.174-.043-.256a1.829,1.829,0,0,1-.013-.287c0-.108.016-.227.031-.35a4.008,4.008,0,0,0,.057-.708.689.689,0,0,0-.192-.5.268.268,0,0,0-.368-.016,1.621,1.621,0,0,0-.418.525,2.64,2.64,0,0,0-.335,1.041,2.1,2.1,0,0,0,.045.649,2.822,2.822,0,0,0,.215.6,3.435,3.435,0,0,0,.306.515,4.13,4.13,0,0,0,.341.416,5.4,5.4,0,0,0,.62.572c.361.278.577.38.7.188s.1-.4-.094-.726c-.095-.161-.236-.347-.391-.571a3.734,3.734,0,0,1-.226-.366A1.946,1.946,0,0,1,1918.388,4668.843Z" transform="translate(-1896.393 -4635.427)" fill="#d1785e"/>
        <g id="Group_10436" data-name="Group 10436" transform="translate(10.2 24.497)">
          <path id="Path_33739" data-name="Path 33739" d="M1940.941,4644.242a8.152,8.152,0,0,1,2.879-.134,8.247,8.247,0,0,1,2.763.87c.859.457.479,1.33-.379,1.123a23.463,23.463,0,0,0-2.558-.486,22.762,22.762,0,0,0-2.593-.189C1940.173,4645.4,1940,4644.464,1940.941,4644.242Z" transform="translate(-1923.21 -4643.998)" fill="#1a1a1a"/>
          <path id="Path_33740" data-name="Path 33740" d="M1886.665,4644.065a8.146,8.146,0,0,0-2.88-.073,8.238,8.238,0,0,0-2.746.929c-.85.475-.452,1.339.4,1.114a23.347,23.347,0,0,1,2.548-.541,22.646,22.646,0,0,1,2.588-.245C1887.456,4645.21,1887.608,4644.268,1886.665,4644.065Z" transform="translate(-1880.567 -4643.898)" fill="#1a1a1a"/>
          <g id="Group_10435" data-name="Group 10435" transform="translate(1.255 3.166)">
            <g id="Group_10433" data-name="Group 10433">
              <path id="Path_33741" data-name="Path 33741" d="M1888.9,4659.158l-.013-2.246a1.971,1.971,0,0,0-1.976-1.955h0a1.971,1.971,0,0,0-1.955,1.977l.012,2.246C1884.97,4660.261,1888.9,4660.239,1888.9,4659.158Z" transform="translate(-1884.952 -4654.957)" fill="#1a1a1a"/>
            </g>
            <g id="Group_10434" data-name="Group 10434" transform="translate(17.454)">
              <path id="Path_33742" data-name="Path 33742" d="M1945.928,4659.158l.012-2.246a1.971,1.971,0,0,1,1.976-1.955h0a1.971,1.971,0,0,1,1.955,1.977l-.012,2.246C1949.853,4660.261,1945.922,4660.239,1945.928,4659.158Z" transform="translate(-1945.928 -4654.957)" fill="#1a1a1a"/>
            </g>
          </g>
        </g>
        <path id="Path_33743" data-name="Path 33743" d="M1906.777,4694.185a10.262,10.262,0,0,0,10.188-1.454c.438-.348-.181-.959-.615-.615a9.407,9.407,0,0,1-9.342,1.23.437.437,0,0,0-.534.3.445.445,0,0,0,.3.535Z" transform="translate(-1888.846 -4653.743)" fill="#a33939"/>
      </g>
      <path id="Path_33744" data-name="Path 33744" d="M2027.708,4806.055c2.508,1.956,6.83,5.983,7.087,8.142s8.468,59.522,8.98,63.236c1.029,7.447-22.714-.2-23.612-5.054s-10.816-40.223-10.816-40.223l9.581-28.083S2025.062,4803.992,2027.708,4806.055Z" transform="translate(-1925.604 -4723.959)" fill="#393734"/>
      <path id="Path_33745" data-name="Path 33745" d="M1924.861,5105.779c6.023,36.971.812,105.1-.75,115.129-1.579,10.139-22.519-6.6-23.2-16.829-.243-3.675.723-7.333.73-11.015.006-3.252-1.418-6.378-1.472-9.643-.468-28.5-6.084-32.5-10.158-50.078l-6.594-27.565Z" transform="translate(-1835.725 -4939.304)" fill="#2c2a28"/>
      <g id="Group_10438" data-name="Group 10438" transform="translate(0 347.809)">
        <path id="Path_33746" data-name="Path 33746" d="M1762.436,5770.679c4.455-2.129,8.382-4.377,9.486-6.667l.492-20.25c.172-1.506.5-3.345-.973-3.548l-6.688-.923a2.61,2.61,0,0,0-2.883,1.941c-.745,2.79-3.364,12.025-3.364,12.025l-13.057,12.874c-1.328,1.309-2.739,2.646-2.869,4.548C1742.577,5770.74,1762.436,5770.679,1762.436,5770.679Z" transform="translate(-1735.2 -5739.266)" fill="#b3b3b3"/>
        <path id="Path_33747" data-name="Path 33747" d="M1753.881,5773.666c-.421-.065,1.089,10.822-3.871,11.632a7.119,7.119,0,0,1-.961.082l-.393-4.6s-7.048-3.254-12.329-2.843l-1.221,2.507-15.014,8.263c-1.242,1.225-3.119,3.075-3.293,5.63a2.019,2.019,0,0,0,.428,1.2h37.944S1754.3,5773.73,1753.881,5773.666Z" transform="translate(-1716.797 -5763.819)" fill="#1a1a1a"/>
      </g>
      <g id="Group_10439" data-name="Group 10439" transform="translate(73.615 348.496)">
        <path id="Path_33748" data-name="Path 33748" d="M2014.844,5772.318a18.431,18.431,0,0,0-1.92-4.527l-9.92-13s-1.249-8.409-1.586-10.944a2.371,2.371,0,0,0-2.291-2.083l-5.919-.1a2.383,2.383,0,0,0-2.392,2.381l-.675,18.31a95.182,95.182,0,0,0,4.016,9.909Z" transform="translate(-1985.512 -5741.665)" fill="#b3b3b3"/>
        <path id="Path_33749" data-name="Path 33749" d="M2002.37,5791.183l-6.711-8.793-.927-2.786c-4.547-1.074-11.037.81-11.037.81l-.853,3.956a6.188,6.188,0,0,1-.827-.2c-4.223-1.379-2.87-8.617-3.244-8.618s-4.8,21.338-4.8,21.338h30.6c.015-.115.027-.231.034-.348C2004.74,5794.289,2003.314,5792.419,2002.37,5791.183Z" transform="translate(-1973.971 -5765.851)" fill="#1a1a1a"/>
      </g>
      <path id="Path_33750" data-name="Path 33750" d="M1808.446,5098.413c-6.155,36.97-3.112,105.1-1.516,115.129,1.614,10.14,23.012-6.6,23.7-16.828.248-3.675-.738-7.332-.745-11.013a41.816,41.816,0,0,1,1.5-9.644c4.163-17.576,12.956-35.152,17.119-52.728v-24.916Z" transform="translate(-1779.577 -4934.046)" fill="#2c2a28"/>
      <path id="Path_33751" data-name="Path 33751" d="M1798.656,5505.016c-.261-14.561-.013-29.124.235-43.684q.187-10.973.374-21.946c.175-10.307.777-20.747,4.572-30.469,1.132-2.9,19.368-10.39,21.619-7.348,0,0,1.518,14.342,2.469,20.837.626,4.274-.224,8.6-1.071,12.844-4.6,23.059-7.009,46.707-11.612,69.766Z" transform="translate(-1775.144 -5149.915)" fill="#2c2a28"/>
      <path id="Path_33752" data-name="Path 33752" d="M1967.125,5511.446c.256-14.56-.353-28.189-.6-42.75q-.182-10.972-.365-21.946c-.172-10.307-.761-20.747-4.475-30.469-1.108-2.9-18.954-10.39-21.156-7.347,0,0-1.486,14.342-2.417,20.837-.612,4.274.219,8.6,1.048,12.843,4.505,23.06,6.651,45.833,11.155,68.893Z" transform="translate(-1874.615 -5155.172)" fill="#2c2a28"/>
      <path id="Path_33753" data-name="Path 33753" d="M1810.7,4880.707c-.68,0-1.136,0-1.318,0-3.422-.042-13.6-3-15.079-5.3,3.792-19.606,1.485-31.421-.748-42.852-1.255-6.43-2.687-20.361-2.687-20.361-1.372-2.574-2.955-21.81-1.787-29.743l25.2-10.593,11.67,3.494h2.354l11.67-3.494,25.2,10.593c1.168,7.933-.415,27.169-1.787,29.743,0,0-1.768,14.265-3.375,20.753-2.721,10.98-5.535,22.336-1.719,41.75l.017.086c-.758,1.144-6.424,4.08-9.188,4.516C1840.252,4880.691,1811.907,4880.707,1810.7,4880.707Z" transform="translate(-1768.103 -4700.962)" fill="#dcd0c8"/>
      <g id="Group_10444" data-name="Group 10444" transform="translate(39.22 65.117)">
        <path id="Path_33754" data-name="Path 33754" d="M1899.188,4791.831l4.4-4.269-2.617-7.155-6.219-.552-6.219.552-2.617,7.155,4.4,4.269-6.9,67.091,11.333,13.252,11.334-13.252Z" transform="translate(-1874.945 -4771.791)" fill="#fda42b"/>
        <g id="Group_10441" data-name="Group 10441" transform="translate(19.809)">
          <g id="Group_10440" data-name="Group 10440">
            <path id="Path_33755" data-name="Path 33755" d="M1935.128,4751.686l-12.115,8.063,4.434.906,3.555,18.4,11.821-18.6Z" transform="translate(-1923.014 -4751.686)" fill="#eae3de"/>
          </g>
        </g>
        <g id="Group_10443" data-name="Group 10443">
          <g id="Group_10442" data-name="Group 10442">
            <path id="Path_33756" data-name="Path 33756" d="M1861.5,4751.686l12.115,8.063-4.434.906-3.555,18.4-11.82-18.6Z" transform="translate(-1853.809 -4751.686)" fill="#eae3de"/>
          </g>
        </g>
      </g>
      <path id="Path_33757" data-name="Path 33757" d="M1737.327,4804.917c-2.508,1.957-6.829,5.984-7.087,8.144s-5.777,47.8-7.21,60.332c-.89,12.076,21.968,12.214,23.375,8.879s9.284-51.254,9.284-51.254l-9.581-28.083S1739.973,4802.854,1737.327,4804.917Z" transform="translate(-1721.227 -4723.147)" fill="#393734"/>
      <path id="Path_33758" data-name="Path 33758" d="M1988.753,4784.075l-23.135-9.351-7.1,54.847-.9,68.18c8.875,6.052,25.242,3.967,27.037,1.691s-1.135-17.545-1.515-20.479c-4.018-31.032,1.9-64.159,1.9-64.159S1990.12,4791.595,1988.753,4784.075Z" transform="translate(-1888.682 -4703.013)" fill="#393734"/>
      <path id="Path_33759" data-name="Path 33759" d="M1811.7,4829.105l-8-54.381-22.5,8.869c-1.367,7.52,3.09,31.21,3.09,31.21s7.829,32.584,2.809,63.156c-.218,2.667-3.332,19.335-2.039,21.189s20.623,6.122,28.49.914Z" transform="translate(-1762.573 -4703.013)" fill="#393734"/>
      <g id="Group_10446" data-name="Group 10446" transform="translate(34.774)">
        <g id="Group_10445" data-name="Group 10445">
          <path id="Path_33760" data-name="Path 33760" d="M1877.044,4554.762a7.068,7.068,0,0,1-2.463-.61c-2.034-.929-4.268-1.544-5.39-3.323-1.5-2.385-.044-5.7-2.208-6.353-3.433-1.039-10.256,2.163-13.3.409a4.88,4.88,0,0,1-1.584-1.463,14.082,14.082,0,0,1-2.847,2.766c-1.878,1.465-3.945,3.152-4.071,5.377-.077,1.368.615,2.662.991,3.989.713,2.52-1.3,10.056-1.3,10.056a38.455,38.455,0,0,1-3.4-6.47c-.623-1.88-.322-3.91-.786-5.826-.5-2.057-1.858-3.894-2.278-5.965a7.283,7.283,0,0,1,2.247-6.634,14.622,14.622,0,0,1-.052-3.454,8.971,8.971,0,0,1,3.6-6.429,7.475,7.475,0,0,1,6.9-.833c3.8-3.275,8.274-6.254,13.381-5.741,4.6.461,8.188,3.662,12.421,5.33,2.479.978,5.182,1.425,7.687,2.348s4.931,2.482,5.776,4.781a4.388,4.388,0,0,1-.337,3.592,3.725,3.725,0,0,1,1.476,2.07c.436,1.778-.374,3.6-1.335,5.208s-5.115,3.748-5.441,5.544c-.369,2.029-3.963,12.479-3.963,12.479l-2.446-10.892A6.443,6.443,0,0,1,1877.044,4554.762Z" transform="translate(-1838.279 -4524.2)" fill="#532a22"/>
        </g>
      </g>
      <g id="Group_10448" data-name="Group 10448" transform="translate(27.675 126.837)">
        <g id="Group_10447" data-name="Group 10447" transform="translate(7.676 4.268)">
          <path id="Path_33761" data-name="Path 33761" d="M1916.734,5008.526c.228-1.519-4.854-16.169-10.883-18.257s-63.394-8.057-63.394-8.057-2.969,4.978-1.95,8.839c0,0,42.366,14.322,47.967,16.044S1916.506,5010.044,1916.734,5008.526Z" transform="translate(-1840.294 -4982.212)" fill="#f0b297"/>
        </g>
        <path id="Path_33762" data-name="Path 33762" d="M1825.775,4972.335s-11.556-4.649-12.3-5.032v16.8l10.637-3.59Z" transform="translate(-1813.477 -4967.303)" fill="#f0b297"/>
        <path id="Path_33763" data-name="Path 33763" d="M1870.387,4974.314l-3.67,17s38.3,11.852,54.023,15.145,22.361-2.617,21.026-7.989a21.509,21.509,0,0,0-15.624-15.713C1916.4,4980.373,1870.387,4974.314,1870.387,4974.314Z" transform="translate(-1851.477 -4972.307)" fill="#393734"/>
      </g>
      <g id="Group_10453" data-name="Group 10453" transform="translate(9.972 135.074)">
        <g id="Group_10449" data-name="Group 10449" transform="translate(0 3.096)">
          <path id="Path_33764" data-name="Path 33764" d="M1751.635,5026.758c.058-1.534,4.982-18.869,11.294-19.8s70.7,8.572,70.7,8.572-2.871,8.85-5.223,9.8c0,0-32.274,1.223-43.755,2.633C1778.834,5028.682,1751.577,5028.292,1751.635,5026.758Z" transform="translate(-1751.635 -5006.894)" fill="#f0b297"/>
        </g>
        <g id="Group_10452" data-name="Group 10452" transform="translate(70.479)">
          <g id="Group_10451" data-name="Group 10451">
            <g id="Group_10450" data-name="Group 10450">
              <path id="Path_33765" data-name="Path 33765" d="M1999.244,5024.31c3.49,1.9,7.48,2.383,11.249,3.448,1.536.433,3.371.788,4.454-.28a4.481,4.481,0,0,0,.984-2.369c.564-2.771-1.84-6.742-1.275-10.364.4-2.542.536-7.944-.768-7.792-3.434.4-9.042,5.936-12.65,7.751a3.089,3.089,0,0,0-1.258,1.171C1998.789,5017.853,1996.283,5022.7,1999.244,5024.31Z" transform="translate(-1997.853 -5003.839)" fill="#f0b297"/>
              <path id="Path_33766" data-name="Path 33766" d="M2048.721,5021.991a33,33,0,0,0,9.007-.758c1.808-.426,3.791-1.993,9.228-5.247,2.022-1.21-.726-2.7-2.875-1.721a36.92,36.92,0,0,1-6.568,2.652c-3.222,1.044-6.208-.294-9.39.183C2045.983,5017.421,2046.545,5021.939,2048.721,5021.991Z" transform="translate(-2032.771 -5008.833)" fill="#f0b297"/>
              <path id="Path_33767" data-name="Path 33767" d="M2045.83,5038.754c5.13-.356,6.9.19,10.169-.658,2.484-.644,3.7-1.672,7.687-3.187,2.735-1.039,1.054-4.05-1.676-3.012-4.082,1.552-5.516,2.141-5.516,2.141-4.18,1.166-8.526.152-12.766.8C2040.874,5035.272,2042.94,5038.954,2045.83,5038.754Z" transform="translate(-2029.622 -5021.491)" fill="#f0b297"/>
              <path id="Path_33768" data-name="Path 33768" d="M2045.766,5054.761c4.355.83,8.5,1.182,10.571.839.959-.16,4.983-1.786,6.1-2.176a9.873,9.873,0,0,0,3.058-1.842c.749-.861-.224-2.29-1.41-2.014-1.383.323-5.833,1.92-8.845,2.431-4.274.726-6.767-1.574-11.035-1.36C2041.332,5050.783,2042.914,5054.217,2045.766,5054.761Z" transform="translate(-2029.851 -5034.233)" fill="#f0b297"/>
              <path id="Path_33769" data-name="Path 33769" d="M2042.744,5069.66a34.33,34.33,0,0,0,6.9.412c.781.023,3.623-.48,5.388-.538.95-.03,3.593-.523,3.593-.523a1.081,1.081,0,0,0-.848-1.818c-1.138.052-3.264.218-5.721.158-3.486-.084-6.727-1.71-10.151-2.258C2039.6,5064.723,2040.435,5069.292,2042.744,5069.66Z" transform="translate(-2028.319 -5045.322)" fill="#f0b297"/>
              <path id="Path_33770" data-name="Path 33770" d="M2031.311,5008.175c1.578-3.131,2.505-5.276,3.982-5.816a33.166,33.166,0,0,0,4.678-1.976,4.71,4.71,0,0,0,2-3.089c.2-2.283-3.99-.755-7.126-.167a8.786,8.786,0,0,0-4.9,2.416c-1.357,1.3-6,5.939-6,5.939Z" transform="translate(-2016.478 -4996.08)" fill="#f0b297"/>
            </g>
          </g>
        </g>
      </g>
      <path id="Path_33771" data-name="Path 33771" d="M1811.172,5020.75l3.686-17.565s-57.077-6.247-61.949-6.847-12.94,5.773-13.974,12.206-.207,11.648,6.413,13.074S1811.172,5020.75,1811.172,5020.75Z" transform="translate(-1732.333 -4861.162)" fill="#393734"/>
    </g>
    <path id="Path_33772" data-name="Path 33772" d="M2096.014,4949.792c-1.423-2.055-3.356-8.428-2.809-11.864s19.5-39.2,19.5-39.2,16.52,7.4,16.3,14.772c0,0-18.79,36.259-20.43,36.973S2097.519,4951.965,2096.014,4949.792Z" transform="translate(-915.313 -267.322)" fill="#f8a588"/>
    <path id="Path_33773" data-name="Path 33773" d="M2145.954,4809.238c-3.451,1.1-8.524,2.676-9.651,4.879s-15.79,30.639-22.271,43.455c3.15,8.5,11.655,14.632,20.211,17.647,7.821-8.939,12.07-24.8,17.115-35.557l6.177-30.333S2149.6,4808.08,2145.954,4809.238Z" transform="translate(-930.245 -203.095)" fill="#19396f"/>
    <g id="Group_10455" data-name="Group 10455" transform="translate(1239.538 4580.317)">
      <g id="Group_10454" data-name="Group 10454">
        <rect id="Rectangle_3108" data-name="Rectangle 3108" width="22.777" height="27.093" fill="#f0b297"/>
        <path id="Path_33774" data-name="Path 33774" d="M2331.577,4720.242v8.333c-5.664,4.583-13.32,7.679-22.777,8.332v-16.664Z" transform="translate(-2308.8 -4720.242)" fill="#b36650"/>
      </g>
    </g>
    <g id="Group_10462" data-name="Group 10462" transform="translate(1229.844 4537.295)">
      <g id="Group_10457" data-name="Group 10457">
        <g id="Group_10456" data-name="Group 10456" transform="translate(0 26.883)">
          <path id="Path_33775" data-name="Path 33775" d="M2392.679,4676.1a4.363,4.363,0,0,0,3.051-.393,10.092,10.092,0,0,0,2.468-1.869c1.961-1.89,3.785-4.271,3.646-6.939a3.33,3.33,0,0,0-1.046-2.407,3.184,3.184,0,0,0-3.125-.393,5.314,5.314,0,0,0-2.431,2.094Z" transform="translate(-2358.974 -4663.861)" fill="#f0b297"/>
          <path id="Path_33776" data-name="Path 33776" d="M2284.106,4676.1a4.362,4.362,0,0,1-3.051-.393,10.087,10.087,0,0,1-2.468-1.869c-1.961-1.89-3.785-4.271-3.646-6.939a3.331,3.331,0,0,1,1.046-2.407,3.184,3.184,0,0,1,3.124-.393,5.314,5.314,0,0,1,2.432,2.094Z" transform="translate(-2274.933 -4663.861)" fill="#f0b297"/>
        </g>
        <path id="Path_33777" data-name="Path 33777" d="M2316.88,4610.356c.777-8.349,2.953-13.217,4.3-18.041.961-3.614,1.934-9.789-2.268-15.231-4.152-5.656-14.574-8.868-24.115-6.164-9.609,2.708-14.94,8.326-13.777,14.721.588,3.83,1.139,9.126,1.779,13.077.531,3.285-.468,6.579.747,9.777,2.261,5.506,11,15.162,17.886,15.162C2307.057,4623.657,2316.344,4614,2316.88,4610.356Z" transform="translate(-2279.165 -4569.947)" fill="#f0b297"/>
      </g>
      <path id="Path_33778" data-name="Path 33778" d="M2353.037,4685.041a3,3,0,0,1-.205.462.886.886,0,0,1-.314.382c-.141.075-.354.022-.518-.218a1.028,1.028,0,0,1-.165-.459,1.31,1.31,0,0,1,.378-1.074,1,1,0,0,1,.413-.249c.277-.078.474.019.536.168a.9.9,0,0,1,0,.5A3.049,3.049,0,0,1,2353.037,4685.041Z" transform="translate(-2329.817 -4651.251)" fill="#f2f2f2" style="mix-blend-mode: soft-light;isolation: isolate"/>
      <path id="Path_33779" data-name="Path 33779" d="M2346.6,4683.837c-.027-.115-.05-.217-.068-.309s-.031-.172-.042-.252a1.819,1.819,0,0,1-.013-.284c0-.107.016-.225.031-.345a4.01,4.01,0,0,0,.056-.7.679.679,0,0,0-.19-.489.264.264,0,0,0-.363-.016,1.6,1.6,0,0,0-.413.519,2.605,2.605,0,0,0-.331,1.028,2.068,2.068,0,0,0,.044.641,2.763,2.763,0,0,0,.212.6,3.483,3.483,0,0,0,.3.509,3.952,3.952,0,0,0,.336.41,5.34,5.34,0,0,0,.613.566c.356.275.57.375.688.184s.1-.4-.093-.716c-.094-.159-.233-.343-.387-.565a3.724,3.724,0,0,1-.222-.362A1.868,1.868,0,0,1,2346.6,4683.837Z" transform="translate(-2325.129 -4649.481)" fill="#d1785e"/>
      <g id="Group_10461" data-name="Group 10461" transform="translate(8.692 22.452)">
        <path id="Path_33780" data-name="Path 33780" d="M2373.708,4648.471a7.711,7.711,0,0,1,3.074.156c1,.255,3.168,3,2.282,2.659a22.441,22.441,0,0,0-2.656-.867,21.639,21.639,0,0,0-2.73-.514C2372.747,4649.782,2372.684,4648.635,2373.708,4648.471Z" transform="translate(-2353.592 -4648.384)" fill="#2c120d"/>
        <path id="Path_33781" data-name="Path 33781" d="M2310.249,4649.225a7.7,7.7,0,0,0-2.986.742c-.937.442-2.552,3.558-1.747,3.051a22.411,22.411,0,0,1,2.445-1.36,21.532,21.532,0,0,1,2.582-1.028C2311.434,4650.332,2311.284,4649.19,2310.249,4649.225Z" transform="translate(-2305.298 -4648.983)" fill="#2c120d"/>
        <g id="Group_10460" data-name="Group 10460" transform="translate(2.285 4.975)">
          <g id="Group_10458" data-name="Group 10458">
            <path id="Path_33782" data-name="Path 33782" d="M2317.176,4669.914l-.012-2.219a1.947,1.947,0,0,0-1.953-1.93h0a1.947,1.947,0,0,0-1.93,1.952l.012,2.219c0,.5,1.03-.839,1.935-.812C2316.257,4669.153,2317.179,4670.481,2317.176,4669.914Z" transform="translate(-2313.281 -4665.764)" fill="#2c120d"/>
          </g>
          <g id="Group_10459" data-name="Group 10459" transform="translate(17.24)">
            <path id="Path_33783" data-name="Path 33783" d="M2373.51,4669.914l.012-2.219a1.946,1.946,0,0,1,1.952-1.93h0a1.947,1.947,0,0,1,1.931,1.952l-.013,2.219c0,.532-.968-.846-1.935-.849S2373.507,4670.449,2373.51,4669.914Z" transform="translate(-2373.51 -4665.764)" fill="#2c120d"/>
          </g>
        </g>
      </g>
      <path id="Path_33784" data-name="Path 33784" d="M2337.636,4703.47a6.013,6.013,0,0,0,7.151,2.12.458.458,0,0,0,.173-.618.464.464,0,0,0-.617-.173,5.084,5.084,0,0,1-5.916-1.773c-.328-.476-1.122-.038-.791.444Z" transform="translate(-2319.631 -4664.786)" fill="#c2502f"/>
    </g>
    <path id="Path_33785" data-name="Path 33785" d="M2467.441,4942.031c2.353-.7,5.732-3.2,6.524-6.521s-3.523-48.486-3.523-48.486-17.763.519-20.327,7.292c0,0,8.051,39.622,8.748,41.234C2459.567,4937.18,2464.8,4942.815,2467.441,4942.031Z" transform="translate(-1170.125 -258.967)" fill="#f0b297"/>
    <path id="Path_33786" data-name="Path 33786" d="M2455.963,4814.607c2.168,1.825,5.882,5.556,6.039,7.487s4.086,28.454,4.944,39.659c-4.818,5.2-14.625,5.522-21.714,5.146-2.985-8.8-6.49-29.663-6.49-29.663l9.468-24.687S2453.675,4812.682,2455.963,4814.607Z" transform="translate(-1162.009 -205.809)" fill="#19396f"/>
    <g id="Group_10465" data-name="Group 10465" transform="translate(1194.817 4690.668)">
      <g id="Group_10463" data-name="Group 10463" transform="translate(95.581 177.06)">
        <path id="Path_33787" data-name="Path 33787" d="M2519.937,5749.555l-8.877-25.247h-10.451l1.124,25.247S2521.912,5755.174,2519.937,5749.555Z" transform="translate(-2496.563 -5724.309)" fill="#b3b3b3"/>
        <path id="Path_33788" data-name="Path 33788" d="M2486.477,5802.377s.9-12.987,5.394-14.529l1.573-4.078s7.642-1.763,13.035,0l2.7,4.334s4.945,3.086,5.394,5.657.9,8.616.9,8.616Z" transform="translate(-2486.477 -5766.19)" fill="#393734"/>
      </g>
      <path id="Path_33789" data-name="Path 33789" d="M2351.617,5113.057c5.971,36.651,4.891,79.54,6.988,93.923,1.468,10.066-21.575,10.488-25.808,2.7-2.443-4.495-6.82-37-7.819-40.083-2.844-8.765-10.4-14.411-14.443-31.835v-24.7Z" transform="translate(-2265.316 -5110.966)" fill="#393734"/>
      <g id="Group_10464" data-name="Group 10464" transform="translate(0 179.596)">
        <path id="Path_33790" data-name="Path 33790" d="M2200.933,5766.46c4.721-2.256,8.882-4.639,10.052-7.065l.522-21.459c.183-1.6.528-3.543-1.031-3.759l-7.087-.979a2.767,2.767,0,0,0-3.055,2.057c-.79,2.958-3.564,12.743-3.564,12.743l-13.836,13.643c-1.407,1.388-2.9,2.8-3.04,4.819C2179.887,5766.524,2200.933,5766.46,2200.933,5766.46Z" transform="translate(-2172.07 -5733.171)" fill="#b3b3b3"/>
        <path id="Path_33791" data-name="Path 33791" d="M2191.865,5769.626c-.447-.068,1.155,11.467-4.1,12.327a7.341,7.341,0,0,1-1.019.085l-.416-4.871s-7.468-3.448-13.065-3.014l-1.293,2.658-15.91,8.755c-1.316,1.3-3.3,3.259-3.49,5.966a2.141,2.141,0,0,0,.454,1.276h40.209S2192.312,5769.694,2191.865,5769.626Z" transform="translate(-2152.567 -5759.19)" fill="#393734"/>
      </g>
      <path id="Path_33792" data-name="Path 33792" d="M2236.2,5105.753c-6.1,36.652-3.085,104.2-1.5,114.137,1.6,10.053,22.813-6.547,23.5-16.683.247-3.643-.732-7.269-.739-10.919a41.442,41.442,0,0,1,1.491-9.56c4.127-17.424,12.844-34.849,16.972-52.274v-24.7Z" transform="translate(-2209.652 -5105.753)" fill="#393734"/>
      <path id="Path_33793" data-name="Path 33793" d="M2226.5,5508.852c-.259-14.435-.012-28.873.233-43.308q.185-10.878.37-21.757c.174-10.218.771-20.568,4.533-30.206,1.123-2.877,19.2-10.3,21.433-7.284,0,0,1.506,14.217,2.448,20.657.62,4.237,1.054,11.21.214,15.417-4.357,21.824-6.612,43.594-9.924,66.481Z" transform="translate(-2205.257 -5319.762)" fill="#393734"/>
      <path id="Path_33794" data-name="Path 33794" d="M2429.58,5505.7c-3.055-14.109-7.31-32.508-10.846-46.505q-2.665-10.548-5.329-21.1c-2.5-9.907-4.4-21.309-10.19-29.85-1.727-2.549-23.287-4.82-24.722-1.384,0,0,3.42,14.728,3.994,21.207.379,4.265,2.162,8.25,3.924,12.157,9.576,21.234,14.57,44.774,24.146,66.008Z" transform="translate(-2313.822 -5319.427)" fill="#393734"/>
    </g>
    <path id="Path_33795" data-name="Path 33795" d="M2291.01,4788.511l-25.984-10.923-11.812,3.536h-1.984l-11.812-3.536-25.984,10.923c-1.355,7.455,1.789,30.892,1.789,30.892.292,20.5,9.168,31.957,3.211,62.265,1.2,3.306,13.1,6.251,16.18,6.291,1.818.022,30.641,0,39.6-1.414,2.538-.4,11.095-4.166,10.077-5.97-5.957-30.308,4.642-40.67,4.934-61.172C2289.221,4819.4,2292.365,4795.966,2291.01,4788.511Z" transform="translate(-1000.952 -180.855)" fill="#19396f"/>
    <g id="Group_10481" data-name="Group 10481" transform="translate(1232.801 4592.274)">
      <g id="Group_10478" data-name="Group 10478" transform="translate(18.469)">
        <g id="Group_10477" data-name="Group 10477">
          <path id="Path_33812" data-name="Path 33812" d="M2361.081,4762.015l-11.3,7.994,4.4.9,3.524,18.238,9.716-15.294a4.754,4.754,0,0,0-.583-5.843Z" transform="translate(-2349.785 -4762.015)" fill="#f9f1e8"/>
        </g>
      </g>
      <g id="Group_10480" data-name="Group 10480">
        <g id="Group_10479" data-name="Group 10479">
          <path id="Path_33813" data-name="Path 33813" d="M2291.723,4762.015l12.01,7.994-4.4.9-3.524,18.238-9.807-15.437a4.754,4.754,0,0,1,.441-5.687Z" transform="translate(-2285.264 -4762.015)" fill="#f9f1e8"/>
        </g>
      </g>
    </g>
    <g id="Group_10482" data-name="Group 10482" transform="translate(1229.626 4527.907)">
      <path id="Path_33814" data-name="Path 33814" d="M2317.639,4565.14a20.591,20.591,0,0,0,.245-7.158c-.612-3.7-2.939-7.337-6.542-8.54,1.969-1.3,2.15-4.278.93-6.281s-3.437-3.2-5.644-4.048c-7.445-2.876-16.292-2.749-23.094,1.392-6.776,4.125-10.574,13.877-9.01,20.136s2.248,9.52,6.572,9.276c3.827-.217,7.214-2.468,10.128-4.921s7.284-6.873,10.733-8.523a11.423,11.423,0,0,1,8.817-.662c3.178,6.892,2.369,14.792,2.7,22.941.974-2.965,2.425-6.585,3.246-9.672C2317.066,4567.783,2317.392,4566.466,2317.639,4565.14Z" transform="translate(-2274.174 -4537.147)" fill="#2c120d"/>
      <path id="Path_33815" data-name="Path 33815" d="M2281.042,4625.573l1.883-20.643s-2.967-2.637-4.431-1.414S2281.042,4625.573,2281.042,4625.573Z" transform="translate(-2277.028 -4584.288)" fill="#2c120d"/>
    </g>
    <g id="Group_10483" data-name="Group 10483" transform="translate(1266.255 4668.07)">
      <path id="Path_33816" data-name="Path 33816" d="M2441.478,5026.813c-1.319-.275-7.821,7.914-10.5,12.318s-13.614,38.285-13.614,38.285,4.449,4.807,8.191,4.3c0,0,24.45-40.187,25.027-44.855C2451.745,5027.494,2442.8,5027.087,2441.478,5026.813Z" transform="translate(-2413.009 -5026.806)" fill="#f0b297"/>
      <path id="Path_33817" data-name="Path 33817" d="M2408.968,5182.9s-6.656.338-6.829,3.555,9.2,12.418,12.674,10.682,2.622-7.283,1.4-9.543S2411.657,5182.5,2408.968,5182.9Z" transform="translate(-2402.136 -5138.194)" fill="#f0b297"/>
    </g>
    <g id="woman" transform="translate(907.606 4564.201)">
      <path id="Path_33818" data-name="Path 33818" d="M1484.619,4695.543c4.995,15.193,4.914,32.231-2.093,46.608-2.3,4.721-5.922,9.576-11.142,10.158-2.955.33-5.855-.8-8.614-1.911-9.687-3.9-19.486-7.856-27.931-14-3.613-2.627-7.256-6.356-6.839-10.8.253-2.7,2-5.035,4.027-6.833s4.374-3.2,6.4-5c9.282-8.24,9.253-24.157,19.236-31.531C1460.388,4680.223,1483,4690.61,1484.619,4695.543Z" transform="translate(-1348.172 -4676.817)" fill="#b14b16"/>
      <path id="Path_33819" data-name="Path 33819" d="M1316.156,4938.562c-.908-1.731-1.8-6.859-1.047-9.473s18.869-28.55,18.869-28.55,12.111,7.316,11.235,13.017c0,0-18.937,25.278-20.172,25.937C1322.288,4940.961,1317.116,4940.392,1316.156,4938.562Z" transform="translate(-1267.417 -4832.815)" fill="#f8a588"/>
      <path id="Path_33820" data-name="Path 33820" d="M1366.82,4838.29c-2.783.522-7.846,1.942-8.931,3.544s-13.722,19.751-19.973,29.076c1.633,6.894,8.208,9.476,14.559,12.632,6.921-6.189,10.953-13.349,15.893-21.209l7.035-21.115S1369.756,4837.738,1366.82,4838.29Z" transform="translate(-1283.897 -4788.342)" fill="#fda42b"/>
      <g id="Group_10489" data-name="Group 10489" transform="translate(0 91.098)">
        <path id="Path_33821" data-name="Path 33821" d="M1277.16,4989.722c-1.035-.41-6.435,3-10.2,7.506-2.73,3.266-14.313,31.672-14.313,31.672s0,4.57,1.809,6.318c0,0,24.283-26.159,27.061-32.5C1283.071,4999.157,1278.195,4990.13,1277.16,4989.722Z" transform="translate(-1223.033 -4987.542)" fill="#f8a588"/>
        <path id="Path_33822" data-name="Path 33822" d="M1210.817,5120.313s-5.119.783-7.327.482-.728,2.882,1.467,3.326,2.809,1.122,5.295,2.753,6.512,3.307,7.736,2.851,3.133-6.731,3.991-8.6-1.239-5.269-3.162-4.576S1212.563,5120.08,1210.817,5120.313Z" transform="translate(-1187.172 -5078.026)" fill="#f8a588"/>
        <g id="Group_10484" data-name="Group 10484">
          <path id="Path_33823" data-name="Path 33823" d="M1191.441,4985.5l-2.64-3.312-39.6,20.908,6.425,1.009S1169.4,5005.6,1191.441,4985.5Z" transform="translate(-1149.201 -4982.193)" fill="#856861"/>
          <path id="Path_33824" data-name="Path 33824" d="M1190.584,5099.024l-6.811-1.669-34.573-42.119,7.088.929Z" transform="translate(-1149.201 -5034.328)" fill="#856861"/>
          <path id="Path_33825" data-name="Path 33825" d="M1174.823,5077.868l-12.72-15.9-4.436-.582,14.038,17.1Z" transform="translate(-1155.244 -5038.721)" fill="#fff"/>
          <path id="Path_33826" data-name="Path 33826" d="M1172.474,5006.039s19.047-13.263,36.521-20.954l26.1,48.833-27.9,15.036Z" transform="translate(-1165.812 -4984.257)" fill="#b28b81"/>
        </g>
        <g id="Group_10485" data-name="Group 10485" transform="translate(17.575 43.32)">
          <path id="Path_33827" data-name="Path 33827" d="M1216.71,5134.612s-1.09.976-4.508,3.776-.6,4.793,1.371,3.18,4.666-4.917,6.061-6.146S1218.582,5133.016,1216.71,5134.612Z" transform="translate(-1210.598 -5133.751)" fill="#f8a588"/>
          <path id="Path_33828" data-name="Path 33828" d="M1215.862,5141.927a2.384,2.384,0,0,0,1.216-.425,5.12,5.12,0,0,0,.5-.415c.165-.142.32-.3.48-.444.631-.6,1.232-1.238,1.825-1.879l1.774-1.933c.3-.321.6-.642.9-.956.152-.159.309-.312.466-.466s.333-.3.464-.449a1.07,1.07,0,0,0,.162-.25.567.567,0,0,0-.25-.739,1.853,1.853,0,0,0-1.2-.251,2.9,2.9,0,0,0-1.2.393,3.46,3.46,0,0,0-.52.372l-.5.426q-2.01,1.688-4.079,3.3l1.993-1.707c.666-.566,1.331-1.134,1.989-1.709l.49-.435a3.487,3.487,0,0,1,.542-.395,3.082,3.082,0,0,1,1.269-.424,2.033,2.033,0,0,1,1.32.275.833.833,0,0,1,.384.6.857.857,0,0,1-.064.365,1.252,1.252,0,0,1-.191.3c-.158.178-.325.31-.481.46s-.312.3-.464.459c-.307.31-.606.628-.9.947-.6.637-1.186,1.285-1.795,1.915s-1.222,1.254-1.869,1.846c-.166.144-.327.292-.5.43a5.09,5.09,0,0,1-.523.4A2.336,2.336,0,0,1,1215.862,5141.927Z" transform="translate(-1214.355 -5133.533)" fill="#b36650"/>
        </g>
        <g id="Group_10486" data-name="Group 10486" transform="translate(19.946 44.982)">
          <path id="Path_33829" data-name="Path 33829" d="M1223.813,5140.775s-.9,1.155-3.771,4.517.3,4.9,1.957,2.959,3.715-5.684,4.87-7.143S1225.374,5138.871,1223.813,5140.775Z" transform="translate(-1218.882 -5139.558)" fill="#f8a588"/>
          <path id="Path_33830" data-name="Path 33830" d="M1220.9,5148.645a1.689,1.689,0,0,0,1.37.132,2.441,2.441,0,0,0,1.142-.79,25.641,25.641,0,0,0,1.66-2.317q.775-1.2,1.532-2.411c.513-.8,1.009-1.618,1.592-2.385a1.226,1.226,0,0,0,.292-.586.571.571,0,0,0-.038-.3.645.645,0,0,0-.2-.238,1.242,1.242,0,0,0-.617-.223,2.212,2.212,0,0,0-.682.042,2.836,2.836,0,0,0-1.226.618,3.331,3.331,0,0,0-.482.5l-.455.552q-.916,1.1-1.851,2.18L1222,5144.5l-.472.537c-.155.181-.3.367-.454.551.144-.189.285-.382.432-.57l.455-.551.907-1.1c.607-.735,1.212-1.47,1.808-2.214l.443-.559a3.491,3.491,0,0,1,.5-.53,3.023,3.023,0,0,1,1.3-.662,2.37,2.37,0,0,1,.739-.049,1.423,1.423,0,0,1,.711.256.827.827,0,0,1,.254.308.762.762,0,0,1,.056.4,1.4,1.4,0,0,1-.328.682c-.576.748-1.079,1.561-1.6,2.359s-1.02,1.611-1.557,2.4a25.489,25.489,0,0,1-1.712,2.3,2.516,2.516,0,0,1-1.2.778A1.683,1.683,0,0,1,1220.9,5148.645Z" transform="translate(-1220.325 -5139.337)" fill="#b36650"/>
        </g>
        <g id="Group_10487" data-name="Group 10487" transform="translate(23.055 46.266)">
          <path id="Path_33831" data-name="Path 33831" d="M1234.285,5145.332s-.832,1.156-3.5,4.53.426,4.682,1.967,2.735,3.408-5.646,4.477-7.106S1235.731,5143.424,1234.285,5145.332Z" transform="translate(-1229.744 -5144.045)" fill="#f8a588"/>
          <path id="Path_33832" data-name="Path 33832" d="M1233.984,5153.233a2.316,2.316,0,0,0,1.067-.657,4.946,4.946,0,0,0,.392-.5c.127-.169.242-.349.364-.522.474-.705.913-1.434,1.342-2.167l1.282-2.207c.216-.367.432-.734.657-1.1.111-.182.228-.361.345-.541s.255-.352.347-.523a1.059,1.059,0,0,0,.1-.271.553.553,0,0,0-.392-.651,1.808,1.808,0,0,0-1.191.011,2.823,2.823,0,0,0-1.06.625,3.373,3.373,0,0,0-.416.461l-.387.51q-1.557,2.024-3.187,3.991l1.538-2.038c.515-.677,1.028-1.356,1.533-2.041l.375-.515a3.468,3.468,0,0,1,.433-.488,3,3,0,0,1,1.118-.669,1.979,1.979,0,0,1,1.312-.014.811.811,0,0,1,.491.492.825.825,0,0,1,.015.36,1.2,1.2,0,0,1-.119.325c-.113.2-.244.362-.361.538s-.234.353-.345.533c-.227.358-.445.723-.662,1.088-.435.73-.859,1.469-1.306,2.194s-.9,1.448-1.39,2.146c-.128.17-.25.346-.383.512a5.019,5.019,0,0,1-.413.491A2.264,2.264,0,0,1,1233.984,5153.233Z" transform="translate(-1232.247 -5143.825)" fill="#b36650"/>
        </g>
        <g id="Group_10488" data-name="Group 10488" transform="translate(25.662 48.382)">
          <path id="Path_33833" data-name="Path 33833" d="M1242.8,5152.6s-.726,1.062-3.06,4.166.527,4.277,1.877,2.487,2.947-5.187,3.88-6.528S1244.062,5150.848,1242.8,5152.6Z" transform="translate(-1238.85 -5151.412)" fill="#f8a588"/>
          <path id="Path_33834" data-name="Path 33834" d="M1240.818,5159.738a1.481,1.481,0,0,0,1.208.04,2.148,2.148,0,0,0,.958-.755,22.531,22.531,0,0,0,1.329-2.122q.614-1.094,1.212-2.2c.406-.733.8-1.473,1.265-2.177a1.075,1.075,0,0,0,.225-.529.5.5,0,0,0-.05-.26.557.557,0,0,0-.184-.2,1.087,1.087,0,0,0-.553-.163,1.945,1.945,0,0,0-.6.075,2.491,2.491,0,0,0-1.042.608,2.973,2.973,0,0,0-.4.468l-.369.509c-.5.676-1,1.345-1.5,2.013l-.766,1-.385.5c-.125.167-.245.339-.368.508.116-.173.229-.351.348-.523l.369-.508.735-1.018c.492-.678.983-1.356,1.464-2.039l.358-.515a3.067,3.067,0,0,1,.41-.492,2.642,2.642,0,0,1,1.1-.651,2.078,2.078,0,0,1,.645-.083,1.234,1.234,0,0,1,.637.186.725.725,0,0,1,.239.256.67.67,0,0,1,.071.347,1.237,1.237,0,0,1-.251.616c-.464.687-.861,1.427-1.27,2.155s-.806,1.468-1.234,2.189a22.424,22.424,0,0,1-1.376,2.106,2.21,2.21,0,0,1-1.009.748A1.481,1.481,0,0,1,1240.818,5159.738Z" transform="translate(-1240.245 -5151.217)" fill="#b36650"/>
        </g>
      </g>
      <path id="Path_33835" data-name="Path 33835" d="M1394.65,4866.514c2.72-1.755,11.738-22.945,11.738-22.945l20.947,3.33,24.238,7.192s-5.637,22.32-4.01,25.119c5.821,10-5.343,17.545-9.423,21.478-7.308,12.415-9.179,25.07-12.227,37.437a102.387,102.387,0,0,1-38.7-9.284c2.894-12.4,6.969-24.531,6.089-38.91C1391.45,4884.574,1384.923,4872.789,1394.65,4866.514Z" transform="translate(-1319.083 -4792.151)" fill="#fda42b"/>
      <g id="Group_10492" data-name="Group 10492" transform="translate(97.058 36.238)">
        <g id="Group_10491" data-name="Group 10491">
          <g id="Group_10490" data-name="Group 10490">
            <path id="Path_33836" data-name="Path 33836" d="M1503.215,4820.609l-10.339-2.48a6,6,0,0,1-4.438-7.24l4.882-20.347,22.015,5.281-4.881,20.348A6,6,0,0,1,1503.215,4820.609Z" transform="translate(-1488.271 -4790.542)" fill="#f8a588"/>
            <path id="Path_33837" data-name="Path 33837" d="M1501.092,4790.542l-1.932,8.053c4.412,5.744,11.094,10.511,20.083,13.334l3.864-16.106Z" transform="translate(-1496.043 -4790.542)" fill="#b36650"/>
          </g>
        </g>
      </g>
      <path id="Path_33838" data-name="Path 33838" d="M1667.254,4913.3c-.361-1.92-2.842-6.5-5.053-8.081s-32.506-10.7-32.506-10.7-4.965,13.25-.744,17.18c0,0,28.066,10.592,31.782,8.957C1665.2,4918.7,1667.635,4915.332,1667.254,4913.3Z" transform="translate(-1490.41 -4828.52)" fill="#f8a588"/>
      <path id="Path_33839" data-name="Path 33839" d="M1572.629,4878.758c1.475-2.416,5.533-2.666,7.391-2.128a227.2,227.2,0,0,1,27.171,9.17c1.945,6.813-1.959,15.715-5.957,21.573-8.58-1.91-21.123-4.371-31.011-5.815C1570.224,4901.558,1571.136,4881.2,1572.629,4878.758Z" transform="translate(-1449.707 -4815.582)" fill="#fda42b"/>
      <g id="Group_10497" data-name="Group 10497" transform="translate(100.231 0)">
        <g id="Group_10494" data-name="Group 10494" transform="translate(0 4.438)">
          <g id="Group_10493" data-name="Group 10493" transform="translate(0 19.154)">
            <path id="Path_33840" data-name="Path 33840" d="M1504.573,4759.785a4.191,4.191,0,0,1-2.551-1.495,9.7,9.7,0,0,1-1.48-2.582c-1.024-2.409-1.742-5.2-.615-7.509a3.2,3.2,0,0,1,1.831-1.735,3.058,3.058,0,0,1,2.911.828,5.11,5.11,0,0,1,1.363,2.767Z" transform="translate(-1499.356 -4746.359)" fill="#f8a588"/>
            <path id="Path_33841" data-name="Path 33841" d="M1593.385,4803.712a4.187,4.187,0,0,0,2.846.8,9.687,9.687,0,0,0,2.886-.725c2.446-.934,4.955-2.353,5.836-4.766a3.2,3.2,0,0,0-.02-2.522,3.061,3.061,0,0,0-2.616-1.524,5.11,5.11,0,0,0-2.938.938Z" transform="translate(-1566.469 -4781.058)" fill="#f8a588"/>
          </g>
          <path id="Path_33842" data-name="Path 33842" d="M1505.473,4710.165c2.323-7.368,2.151-12.313,2.7-16.907.453-3.425,1.817-9.022,7.5-12.055,5.711-3.23,16.087-2.033,23.552,3.847,7.523,5.91,11.4,14.917,8.065,19.9-1.9,3.025-5.483,5.066-7.472,8.174-1.653,2.583-1.957,5.75-4.184,8-3.985,3.814-15.2,8.71-21.284,6.122C1509.368,4725.13,1504.634,4713.452,1505.473,4710.165Z" transform="translate(-1503.653 -4679.447)" fill="#f8a588"/>
        </g>
        <path id="Path_33843" data-name="Path 33843" d="M1539.952,4752.117a7.828,7.828,0,0,0-4.847-1.4,5.834,5.834,0,0,0-2.447.64c.843.115,1.626.2,2.394.346a22.042,22.042,0,0,1,2.246.519,21.694,21.694,0,0,1,2.179.757C1540.2,4753.268,1540.646,4752.612,1539.952,4752.117Z" transform="translate(-1523.125 -4725.872)" fill="#1a1a1a"/>
        <path id="Path_33844" data-name="Path 33844" d="M1592.139,4770.3a7.787,7.787,0,0,1,2.377.947,7.693,7.693,0,0,1,1.943,1.659,5.832,5.832,0,0,1,1.191,2.23c-.657-.541-1.254-1.054-1.88-1.521a22.014,22.014,0,0,0-1.906-1.3,21.512,21.512,0,0,0-2.035-1.085C1591.123,4770.9,1591.3,4770.127,1592.139,4770.3Z" transform="translate(-1565.047 -4739.837)" fill="#1a1a1a"/>
        <path id="Path_33845" data-name="Path 33845" d="M1556.964,4788.083a2.913,2.913,0,0,0,.008.486.839.839,0,0,0,.134.455c.1.121.3.153.54,0a1,1,0,0,0,.318-.345,1.3,1.3,0,0,0,.16-.54,1.286,1.286,0,0,0-.091-.553.962.962,0,0,0-.272-.375c-.216-.174-.427-.162-.537-.053a.861.861,0,0,0-.19.439A2.912,2.912,0,0,0,1556.964,4788.083Z" transform="translate(-1540.469 -4751.834)" fill="#f2f2f2" style="mix-blend-mode: soft-light;isolation: isolate"/>
        <path id="Path_33846" data-name="Path 33846" d="M1557.791,4789.543c.067-.091.125-.173.175-.247s.093-.141.133-.208a1.625,1.625,0,0,0,.118-.246c.037-.1.071-.2.1-.317a3.8,3.8,0,0,1,.214-.64.656.656,0,0,1,.352-.362.255.255,0,0,1,.327.124,1.542,1.542,0,0,1,.17.614,2.517,2.517,0,0,1-.094,1.034,2,2,0,0,1-.281.551,2.673,2.673,0,0,1-.412.447,3.33,3.33,0,0,1-.459.337,3.846,3.846,0,0,1-.452.236,5.121,5.121,0,0,1-.755.27c-.419.109-.646.117-.677-.1s.061-.389.352-.6c.143-.105.335-.216.554-.354a3.479,3.479,0,0,0,.333-.236A1.827,1.827,0,0,0,1557.791,4789.543Z" transform="translate(-1539.963 -4752.136)" fill="#d1785e"/>
        <path id="Path_33847" data-name="Path 33847" d="M1547.242,4801.34a9.742,9.742,0,0,1-8.36-5.056c-.254-.467.514-.771.765-.309a8.934,8.934,0,0,0,7.7,4.546.416.416,0,0,1,.354.464.424.424,0,0,1-.464.354Z" transform="translate(-1527.531 -4758.018)" fill="#a33939"/>
        <path id="Path_33848" data-name="Path 33848" d="M1510.163,4678.41a2.4,2.4,0,0,1,.447-.721c.743-.39-2.094,7.3-2.094,7.3,8.288,2.594,28.322,12.469,28.322,12.469l4.026-7.005c.688,2.2-6.94,17.969-6.94,17.969,4.391-4.678,11.2-13.3,14-18.844a6.169,6.169,0,0,0-1.977-7.7c1-5.831-2.639-9.622-7.357-13.483-5.5-4.5-13.461-5.563-20.129-3.276s-11.348,6-12.784,12.814c-1.5,7.115-4.275,12.185-3.063,19.088C1502.62,4697.015,1508.4,4681.926,1510.163,4678.41Z" transform="translate(-1501.473 -4663.945)" fill="#b14b16"/>
        <g id="Group_10495" data-name="Group 10495" transform="translate(24.507 34.233)">
          <path id="Path_33849" data-name="Path 33849" d="M1585.018,4784.821a3.4,3.4,0,0,1,3.755-1.068h0a1.867,1.867,0,0,1,.724,2.532l-.432.777C1588.569,4787.957,1584.492,4785.782,1585.018,4784.821Z" transform="translate(-1584.972 -4783.536)" fill="#1a1a1a"/>
          <path id="Path_33850" data-name="Path 33850" d="M1596.815,4783.758a3.516,3.516,0,0,1,1.945,1.666c.633,1.269,1.559,1.268,1.559,1.268a1.991,1.991,0,0,1-2.048-.7c-.758-1.045-1.368-1.105-1.368-1.105Z" transform="translate(-1593.425 -4783.694)" fill="#1a1a1a"/>
        </g>
        <g id="Group_10496" data-name="Group 10496" transform="translate(10.359 25.703)">
          <path id="Path_33851" data-name="Path 33851" d="M1543.219,4760.8a3.4,3.4,0,0,0-1.121-3.74h0a1.868,1.868,0,0,0-2.524.752l-.422.783C1538.665,4759.493,1542.694,4761.756,1543.219,4760.8Z" transform="translate(-1538.091 -4755.947)" fill="#1a1a1a"/>
          <path id="Path_33852" data-name="Path 33852" d="M1539.9,4755.11a3.519,3.519,0,0,0-2.451-.742,1.938,1.938,0,0,1-1.908-.63,1.991,1.991,0,0,0,1.689,1.351c1.289.077,1.668.558,1.668.558Z" transform="translate(-1535.545 -4753.738)" fill="#1a1a1a"/>
        </g>
      </g>
      <path id="Path_33853" data-name="Path 33853" d="M1575.908,4736.167c1.182,10.207-.44,20.567-3.213,30.46-1.624,5.792-3.845,11.773-8.487,15.6a13.754,13.754,0,0,1-11.155,2.862,14.8,14.8,0,0,0,21.693-1.759c2.938-3.749,3.894-8.632,4.761-13.316l4.031-21.756c.821-4.432,2.219-9.4.752-13.905C1583.573,4732.147,1575.908,4736.167,1575.908,4736.167Z" transform="translate(-1437.452 -4713.726)" fill="#b14b16"/>
      <g id="Group_10499" data-name="Group 10499" transform="translate(105.98 279.987)">
        <path id="Path_33854" data-name="Path 33854" d="M1532.356,5642.075c-.173,13.728-.331,27.5-.256,30.755l-7.558.337c-1.41-9.331-3.245-20.444-5.1-31.092Z" transform="translate(-1519.44 -5642.075)" fill="#f0b59c"/>
        <g id="Group_10498" data-name="Group 10498" transform="translate(2.525 22.847)">
          <path id="Path_33855" data-name="Path 33855" d="M1528.375,5739.2c.049-4.142,2.685-5,2.685-5l8.67,3.4s13.682,29.309,11.529,29.956l-14.829-.015c-4.445.1-3.294-6.965-5.013-10.709l.081,10.807h-1.935l-.9-15.053a9.515,9.515,0,0,1-.289-1.316C1528.157,5749.487,1528.31,5744.733,1528.375,5739.2Z" transform="translate(-1528.261 -5730.672)" fill="#fda42b"/>
          <path id="Path_33856" data-name="Path 33856" d="M1543.142,5724.593c.757,2.121,4,10.318,4.834,12.923.647,2.019,2.107,6.545,3.062,9.5a2.2,2.2,0,0,1-2.019,2.875l-9.145.193-4.818-22.88c-.083-.675-.132-4.155,1.325-5.023S1542.385,5722.472,1543.142,5724.593Z" transform="translate(-1533.086 -5721.891)" fill="#f0b59c"/>
        </g>
      </g>
      <path id="Path_33857" data-name="Path 33857" d="M1471.306,5118.816s11.679,32.665,11.578,38.6,0,48.592,0,48.592-16.937,14.064-23.535,4.247c-3.554-5.288-3.6-49.956-3.6-49.956l-10.468-4.731,2.037-37.611Z" transform="translate(-1360.532 -4987.995)" fill="#90a3b5"/>
      <path id="Path_33858" data-name="Path 33858" d="M1514.271,5477.811s-15.948,5.114-17.155,0-3.708-53.228-5.157-63.769-3.94-24.011-3.088-28.835,23.888-3.741,24.444,2.841,2.652,18.039,2.57,24.432S1514.271,5477.811,1514.271,5477.811Z" transform="translate(-1391.518 -5176.619)" fill="#90a3b5"/>
      <g id="Group_10501" data-name="Group 10501" transform="translate(72.942 280.199)">
        <path id="Path_33859" data-name="Path 33859" d="M1416.941,5642.816c-.173,13.728-.332,27.5-.256,30.754l-7.558.337c-1.41-9.331-3.245-20.443-5.1-31.092Z" transform="translate(-1404.024 -5642.816)" fill="#f0b59c"/>
        <g id="Group_10500" data-name="Group 10500" transform="translate(2.525 22.847)">
          <path id="Path_33860" data-name="Path 33860" d="M1412.959,5739.94c.049-4.142,2.685-5,2.685-5l8.67,3.4s13.682,29.31,11.528,29.957l-14.828-.016c-4.445.1-3.294-6.964-5.014-10.708l.081,10.807h-1.935l-.9-15.053a9.506,9.506,0,0,1-.29-1.316C1412.742,5750.229,1412.894,5745.475,1412.959,5739.94Z" transform="translate(-1412.845 -5731.415)" fill="#fda42b"/>
          <path id="Path_33861" data-name="Path 33861" d="M1427.726,5725.333c.757,2.121,4,10.318,4.834,12.923.646,2.019,2.107,6.544,3.062,9.5a2.2,2.2,0,0,1-2.019,2.875l-9.145.193-4.818-22.88c-.083-.675-.132-4.156,1.325-5.024S1426.969,5723.212,1427.726,5725.333Z" transform="translate(-1417.67 -5722.631)" fill="#f0b59c"/>
        </g>
      </g>
      <path id="Path_33862" data-name="Path 33862" d="M1398.855,5478.552s-15.947,5.114-17.155,0-3.708-53.229-5.157-63.768-3.94-24.012-3.089-28.835,23.888-3.74,24.444,2.84,2.652,18.04,2.57,24.432S1398.855,5478.552,1398.855,5478.552Z" transform="translate(-1309.139 -5177.148)" fill="#90a3b5"/>
      <path id="Path_33863" data-name="Path 33863" d="M1363.617,5104.073s-13.612,28.294-12.889,34.227,7.109,57.861,7.109,57.861,18.411,14.064,23.98,4.247c3-5.288-2-56.68-2-56.68l8.1.063v-35.145Z" transform="translate(-1293.021 -4978.088)" fill="#90a3b5"/>
      <g id="Group_10502" data-name="Group 10502" transform="translate(159.838 79.28)">
        <path id="Path_33864" data-name="Path 33864" d="M1707.6,4949.965c.181,1.154,8.413,5.586,13.133,6.406s39.083-.591,39.083-.591,7.467-2.743,5.63-5.871-42.611-9.37-48.922-8.985C1712.152,4941.19,1707.419,4948.812,1707.6,4949.965Z" transform="translate(-1707.594 -4940.906)" fill="#f8a588"/>
      </g>
    </g>
    <g id="using_laptop" data-name="using laptop" transform="translate(956.511 4603.271)">
      <g id="chair" transform="translate(95.92 74.95)">
        <g id="Group_10504" data-name="Group 10504" transform="translate(0.558 110.293)">
          <rect id="Rectangle_3109" data-name="Rectangle 3109" width="91.762" height="7.487" transform="translate(96.59 7.487) rotate(180)" fill="#ccc"/>
          <g id="Group_10503" data-name="Group 10503" transform="translate(0 5.978)">
            <path id="Path_33865" data-name="Path 33865" d="M1912.811,5468.457h12.7l13.73,109.236h-2.4Z" transform="translate(-1839.613 -5468.457)" fill="#414a82"/>
            <path id="Path_33866" data-name="Path 33866" d="M1683.525,5468.457h-12.7l-13.73,109.236h2.4Z" transform="translate(-1657.095 -5468.457)" fill="#414a82"/>
          </g>
        </g>
        <path id="Rectangle_3110" data-name="Rectangle 3110" d="M3.767,0h93.21a3.767,3.767,0,0,1,3.767,3.767v0a3.767,3.767,0,0,1-3.767,3.767H3.767A3.767,3.767,0,0,1,0,3.768v0A3.767,3.767,0,0,1,3.767,0Z" transform="translate(100.744 114.407) rotate(-180)" fill="#333"/>
        <path id="Rectangle_3111" data-name="Rectangle 3111" d="M41.973,0h0A41.972,41.972,0,0,1,83.946,41.972V64.29a41.973,41.973,0,0,1-41.973,41.973h0A41.973,41.973,0,0,1,0,64.29V41.973A41.973,41.973,0,0,1,41.973,0Z" transform="translate(92.345 106.263) rotate(180)" fill="#4d4d4d"/>
        <rect id="Rectangle_3112" data-name="Rectangle 3112" width="99.59" height="77.964" rx="34.857" transform="translate(89.354 3.336) rotate(90)" fill="#999"/>
        <path id="Path_33867" data-name="Path 33867" d="M1656.053,5431.863h98.928a1.014,1.014,0,0,0,.908-1.088v-1.429c0-.6-6.021-2.517-6.465-2.517H1661.61c-.443,0-6.465,1.919-6.465,2.517v1.429A1.014,1.014,0,0,0,1656.053,5431.863Z" transform="translate(-1655.145 -5322.474)" fill="#999"/>
        <path id="Path_33868" data-name="Path 33868" d="M1656.053,5426.872h98.928a1.013,1.013,0,0,0,.908-1.088h0c0-.6-6.021-3.946-6.465-3.946H1661.61c-.443,0-6.465,3.347-6.465,3.946h0A1.013,1.013,0,0,0,1656.053,5426.872Z" transform="translate(-1655.145 -5318.911)" fill="#4d4d4d"/>
      </g>
      <g id="Group_10533" data-name="Group 10533" transform="translate(84.585 0)">
        <g id="Group_10505" data-name="Group 10505" transform="translate(27.77 7.661)">
          <path id="Path_33869" data-name="Path 33869" d="M1728.31,4828.965c-7.1,17.847-10.673,38.618-15.749,59.02a150.781,150.781,0,0,0,44.438,12.2c4.289-18.025,8.4-38.492,10.976-56.818,0,0-3.1-13.133-14.972-15.376S1728.31,4828.965,1728.31,4828.965Z" transform="translate(-1712.561 -4827.195)" fill="#0a0402"/>
        </g>
        <path id="Path_33870" data-name="Path 33870" d="M1943.407,5121.136c1.312-1.8,1.792-6.174,1.38-9.244s-16.44-37.872-16.44-37.872-14.867,6.223-14.832,12.792c0,0,16.228,32.25,17.374,33.357C1937.855,5126.9,1942.021,5123.036,1943.407,5121.136Z" transform="translate(-1828.223 -4995.706)" fill="#f0b297"/>
        <path id="Path_33871" data-name="Path 33871" d="M1891.4,4998.026c3.593.638,6.93,2.859,7.821,4.711s15.284,28.049,20.4,38.822c-5.881,6.386-12.776,9.626-19.943,11.956,0,0-6.435-19.725-10.4-28.755l-7.512-27.435A89.724,89.724,0,0,1,1891.4,4998.026Z" transform="translate(-1805.564 -4940.964)" fill="#19396f"/>
        <g id="Group_10510" data-name="Group 10510" transform="translate(30.752 157.81)">
          <g id="Group_10507" data-name="Group 10507">
            <path id="Path_33872" data-name="Path 33872" d="M1724.752,5368.492c-.674-9.429-1.8-16.4,7.411-16.72,6.229-.214,10.019.451,11.445,6.229,0,0,.87,30.054,1.8,46.589.841,14.938,3.257,40.322,5.482,60.388l-7.859,2.358c-1.484-6.217-13.6-49.838-16.588-60.995C1719.4,5380.02,1725.382,5377.313,1724.752,5368.492Z" transform="translate(-1722.977 -5351.738)" fill="#f8a588"/>
            <g id="Group_10506" data-name="Group 10506" transform="translate(8.854 106.07)">
              <path id="Path_33873" data-name="Path 33873" d="M1776.316,5740.079c-.348-4.257-3.119-5.143-3.119-5.143l-8.666,3.5s-12.609,29.683-10.349,30.347l15.89.425c4.576.1,2.885-7.158,4.384-11.005l.693,11.106h1.989l-.153-15.471a9.451,9.451,0,0,0,.2-1.353C1777.278,5750.655,1776.78,5745.768,1776.316,5740.079Z" transform="translate(-1753.91 -5731.316)" fill="#19396f"/>
              <path id="Path_33874" data-name="Path 33874" d="M1778.377,5725.068c-.626,2.18-3.37,10.6-4.041,13.282-.545,2.175-1.812,7.183-2.574,10.194a2.017,2.017,0,0,0,1.886,2.509l7.82.272,5.407-23.573c.036-.694-.162-4.271-1.722-5.163S1779,5722.888,1778.377,5725.068Z" transform="translate(-1766.608 -5722.291)" fill="#f8a588"/>
            </g>
          </g>
          <g id="Group_10509" data-name="Group 10509" transform="translate(30.179 5.245)">
            <path id="Path_33875" data-name="Path 33875" d="M1828.406,5379.342c0-2.8.522-8.953,9.791-9.27,6.267-.214,8.774,2.236,9.192,8.014,0,0,2.534,11.083,5.973,26.276,3.2,14.133-11.893,44.517-9.222,72.958l-7.8-.347c-.4-6.217-1.685-36.375-2.724-47.53C1831.168,5403.12,1828.406,5379.342,1828.406,5379.342Z" transform="translate(-1828.406 -5370.06)" fill="#f8a588"/>
            <g id="Group_10508" data-name="Group 10508" transform="translate(5.468 97.774)">
              <path id="Path_33876" data-name="Path 33876" d="M1858.968,5734.065s5.417,20.918,6.174,24.362-.478,8.092-1.668,9.384-12.732.953-15.183.236,1.632-32.729,1.632-32.729Z" transform="translate(-1847.507 -5727.644)" fill="#19396f"/>
              <path id="Path_33877" data-name="Path 33877" d="M1855,5714.628c0,2.352-.324,11.437-.226,14.324.118,3.467.437,13.605.437,13.605s8.884.622,9.977-.438c3.105-3.014,1.718-9.326,1.718-9.326l-2.636-15.27c-.163-.749-1.389-4.606-3.2-5.568S1855,5712.277,1855,5714.628Z" transform="translate(-1852.679 -5711.634)" fill="#f8a588"/>
            </g>
          </g>
        </g>
        <path id="Path_33878" data-name="Path 33878" d="M1618.806,5153.421c-1.786-1.33-4.331-7.752-2.776-14.167.73-3.011,11.67-37.118,11.67-37.118s15.334,4.963,15.845,11.512c0,0-12.352,35.267-13.737,36.056S1621.036,5155.083,1618.806,5153.421Z" transform="translate(-1615.547 -5015.774)" fill="#f8a588"/>
        <path id="Path_33879" data-name="Path 33879" d="M1656.478,4999.986c-2.918.729-7.8,3.167-8.532,5.087s-11.739,30.368-15.943,41.53c4.444,4.663,12.379,7.384,19.714,9.109,5.658-8.083,7.745-21.563,10.948-30.893l2.636-25.875A46.035,46.035,0,0,0,1656.478,4999.986Z" transform="translate(-1627.292 -4942.12)" fill="#19396f"/>
        <path id="Path_33880" data-name="Path 33880" d="M1693.722,5356.849s-9.518-25.973-10.44-39.54,12.613-18.6,12.613-18.6l6.415-13.881,39.01-.3s20.423,18.311,23.433,23.68c2.583,4.606,3.367,20.571-8.34,19.008l1.115,29.632Z" transform="translate(-1663.86 -5145.957)" fill="#e5d2b8"/>
        <g id="Group_10511" data-name="Group 10511" transform="translate(26.988 56.646)">
          <path id="Path_33881" data-name="Path 33881" d="M1771.053,5026.693c-2.375-2.487-8.514-28.372-8.514-28.372h-20.4l-21.549.453s-4.986,25.431-7.361,27.918c-8.494,8.9,1.171,19.954,4.412,25.029,4.473,14.639,3.269,18.892,3.353,32.426a108.8,108.8,0,0,0,42.288,0c.084-13.534-1.12-17.787,3.353-32.426C1769.882,5046.646,1779.548,5035.588,1771.053,5026.693Z" transform="translate(-1709.827 -4998.321)" fill="#e5d2b8"/>
        </g>
        <g id="Group_10514" data-name="Group 10514" transform="translate(43.378 39.047)">
          <g id="Group_10513" data-name="Group 10513" transform="translate(2.809)">
            <g id="Group_10512" data-name="Group 10512">
              <rect id="Rectangle_3113" data-name="Rectangle 3113" width="24.056" height="28.613" transform="translate(0)" fill="#f8a588"/>
              <path id="Path_33882" data-name="Path 33882" d="M1800.956,4936.84v8.8c-5.983,4.841-14.068,8.11-24.056,8.8v-17.6Z" transform="translate(-1776.9 -4936.84)" fill="#1a1a1a"/>
            </g>
          </g>
          <path id="Path_33883" data-name="Path 33883" d="M1770.42,5006.429s-3.292,4.635-3.332,7.371c-.029,1.972,11.929,21.412,14.277,21.412s17.706-20.987,18.039-22.246a4.812,4.812,0,0,0-2-4.8,14.137,14.137,0,0,0-5.053-2.1Z" transform="translate(-1767.088 -4986.256)" fill="#f8a588"/>
        </g>
        <g id="Group_10519" data-name="Group 10519" transform="translate(39.643)">
          <g id="Group_10516" data-name="Group 10516" transform="translate(0 5.259)">
            <g id="Group_10515" data-name="Group 10515" transform="translate(0 20.56)">
              <path id="Path_33884" data-name="Path 33884" d="M1854.27,4929.583a4.072,4.072,0,0,0,2.853.333,9.425,9.425,0,0,0,2.658-1.137c2.2-1.27,4.394-3.016,4.87-5.466a3.111,3.111,0,0,0-.406-2.417,2.971,2.971,0,0,0-2.743-1.061,4.966,4.966,0,0,0-2.676,1.349Z" transform="translate(-1825.579 -4911.458)" fill="#f8a588"/>
              <path id="Path_33885" data-name="Path 33885" d="M1760.5,4903.223a4.07,4.07,0,0,1-2.676-1.043,9.411,9.411,0,0,1-1.815-2.251c-1.351-2.154-2.468-4.723-1.74-7.111a3.109,3.109,0,0,1,1.491-1.944,2.972,2.972,0,0,1,2.92.348,4.966,4.966,0,0,1,1.731,2.446Z" transform="translate(-1754.038 -4890.631)" fill="#f8a588"/>
            </g>
            <path id="Path_33886" data-name="Path 33886" d="M1792.8,4858.032c2.508-7.074,5.532-10.809,7.795-14.694,1.652-2.922,3.868-8.063,1.236-13.737-2.54-5.848-11.29-10.987-20.521-10.791-9.293.183-17.568,4.9-17.9,10.719-.295,3.458,1.29,7.137,1.016,10.711-.228,2.971-1.845,5.606-1.437,8.658.86,5.29,6.694,15.646,12.932,17.2C1781.021,4867.365,1791.524,4861.074,1792.8,4858.032Z" transform="translate(-1760.381 -4818.805)" fill="#f8a588"/>
          </g>
          <path id="Path_33887" data-name="Path 33887" d="M1843.185,4901.037a7.6,7.6,0,0,1,4.579,1.749,5.677,5.677,0,0,1,1.525,1.927c-.722-.4-1.381-.792-2.06-1.132a21.456,21.456,0,0,0-2.046-.911,21.084,21.084,0,0,0-2.133-.688C1842.317,4901.782,1842.357,4901.015,1843.185,4901.037Z" transform="translate(-1817.199 -4872.238)" fill="#1a1a1a"/>
          <path id="Path_33888" data-name="Path 33888" d="M1790.67,4889.744a7.585,7.585,0,0,0-2.4-.656,7.5,7.5,0,0,0-2.478.151,5.645,5.645,0,0,0-2.228,1.034c.826-.036,1.59-.084,2.348-.082a21.471,21.471,0,0,1,2.237.11,21.1,21.1,0,0,1,2.213.348C1791.11,4890.8,1791.419,4890.1,1790.67,4889.744Z" transform="translate(-1775.115 -4863.68)" fill="#1a1a1a"/>
          <path id="Path_33889" data-name="Path 33889" d="M1822.447,4925.981a2.771,2.771,0,0,1-.29.373.819.819,0,0,1-.37.276c-.145.036-.326-.06-.421-.314a.969.969,0,0,1-.045-.454,1.26,1.26,0,0,1,.192-.512,1.233,1.233,0,0,1,.393-.375.924.924,0,0,1,.431-.132c.269-.009.426.123.448.272a.837.837,0,0,1-.109.452A2.773,2.773,0,0,1,1822.447,4925.981Z" transform="translate(-1802.055 -4889.23)" fill="#f2f2f2" style="mix-blend-mode: soft-light;isolation: isolate"/>
          <path id="Path_33890" data-name="Path 33890" d="M1816.5,4923.436c0-.11,0-.208.008-.3s.01-.162.018-.238a1.618,1.618,0,0,1,.052-.26c.027-.1.065-.2.106-.307a3.668,3.668,0,0,0,.208-.621.638.638,0,0,0-.061-.487.248.248,0,0,0-.326-.1,1.507,1.507,0,0,0-.491.377,2.442,2.442,0,0,0-.532.858,1.951,1.951,0,0,0-.1.59,2.582,2.582,0,0,0,.058.589,3.193,3.193,0,0,0,.159.529,3.768,3.768,0,0,0,.212.447,5.111,5.111,0,0,0,.428.651c.261.33.432.468.582.322s.18-.338.077-.669c-.049-.166-.134-.364-.223-.6a3.636,3.636,0,0,1-.12-.378A1.773,1.773,0,0,1,1816.5,4923.436Z" transform="translate(-1797.818 -4886.564)" fill="#d1785e"/>
          <g id="Group_10517" data-name="Group 10517" transform="translate(24.406 32.293)">
            <path id="Path_33891" data-name="Path 33891" d="M1839.31,4915.278a3.4,3.4,0,0,1,3.359-1.989h0a1.869,1.869,0,0,1,1.345,2.265l-.22.861C1843.541,4917.408,1839.045,4916.341,1839.31,4915.278Z" transform="translate(-1839.299 -4913.244)" fill="#1a1a1a"/>
            <path id="Path_33892" data-name="Path 33892" d="M1849.547,4913.25a3.514,3.514,0,0,1,2.305,1.116,1.939,1.939,0,0,0,1.83.831,1.991,1.991,0,0,1-2.158-.152c-1-.818-1.6-.721-1.6-.721Z" transform="translate(-1846.613 -4913.249)" fill="#1a1a1a"/>
          </g>
          <g id="Group_10518" data-name="Group 10518" transform="translate(8.192 28.368)">
            <path id="Path_33893" data-name="Path 33893" d="M1793.064,4903.189a3.4,3.4,0,0,0-2.036-3.332h0a1.868,1.868,0,0,0-2.249,1.37l-.209.865C1788.328,4903.087,1792.8,4904.251,1793.064,4903.189Z" transform="translate(-1786.87 -4899.728)" fill="#1a1a1a"/>
            <path id="Path_33894" data-name="Path 33894" d="M1787.221,4899.832a3.521,3.521,0,0,0-2.56-.094,1.938,1.938,0,0,1-2.005-.125,1.99,1.99,0,0,0,1.978.877,2.306,2.306,0,0,1,1.754.115Z" transform="translate(-1782.656 -4899.536)" fill="#1a1a1a"/>
          </g>
          <path id="Path_33895" data-name="Path 33895" d="M1801.6,4939.537a9.465,9.465,0,0,0,9.444.968c.469-.213.052-.9-.413-.687a8.681,8.681,0,0,1-8.637-.979.4.4,0,0,0-.546.153.411.411,0,0,0,.152.546Z" transform="translate(-1787.837 -4899.179)" fill="#a33939"/>
          <path id="Path_33896" data-name="Path 33896" d="M1799.781,4824.848a2.35,2.35,0,0,0,.075-.82c-.349-.737-2.644,6.886-2.644,6.886-7.946-2.835-29.265-6.894-29.265-6.894l.975-7.789c-1.82,1.3-5.128,18-5.128,18-.67-6.2-.908-16.867.159-22.811a5.992,5.992,0,0,1,6.039-4.819c2.632-5.111,7.675-5.922,13.594-6.157,6.9-.274,13.7,3.559,17.532,9.232s5.294,11.292,2.421,17.419c-3,6.4-3.81,11.953-8.789,16.6C1794.749,4843.694,1799.1,4828.61,1799.781,4824.848Z" transform="translate(-1760.592 -4800.43)" fill="#0a0402"/>
        </g>
        <g id="Group_10520" data-name="Group 10520" transform="translate(26.411 55.297)">
          <path id="Path_33897" data-name="Path 33897" d="M1715.356,4996.439s-2.228,26.242-3.876,27.9c-10.252,10.332,4.25,27.669,4.25,27.669,3.539,11.621-.44,28.313-2.445,35.655-.59,2.16,13.738,6.531,14.3,6.622.8-32.313,2.67-66.893,0-99.243Z" transform="translate(-1707.814 -4994.634)" fill="#19396f"/>
          <path id="Path_33898" data-name="Path 33898" d="M1875.344,5023.317c-1.525-1.774-7.146-28.183-7.146-28.183l-11.721-1.526c-.647,31.95-4.381,67.239,1.362,99.066.982-.149,18.568-7.578,18.538-9.817,0,0-8.821-20.251-5.283-31.872C1871.093,5050.986,1884.429,5033.891,1875.344,5023.317Z" transform="translate(-1812.645 -4993.609)" fill="#19396f"/>
        </g>
        <g id="Group_10526" data-name="Group 10526" transform="translate(1.785 125.478)">
          <g id="Group_10524" data-name="Group 10524">
            <g id="Group_10523" data-name="Group 10523">
              <g id="Group_10522" data-name="Group 10522">
                <g id="Group_10521" data-name="Group 10521">
                  <path id="Path_33899" data-name="Path 33899" d="M1661.287,5257.5s-26.453-1.246-36.736-5.681c-4-1.724-3.219-8.068-.486-10.17a15.423,15.423,0,0,1,8.36-2.855c3.675-.157,27.467,10.766,29.868,11.862S1667.114,5255.1,1661.287,5257.5Z" transform="translate(-1621.782 -5238.788)" fill="#f8a588"/>
                </g>
              </g>
            </g>
          </g>
          <g id="Group_10525" data-name="Group 10525" transform="translate(34.625 8.452)">
            <path id="Path_33900" data-name="Path 33900" d="M1794.048,5274.8s3.339-.093,5.3,1.266,6.675,9.226,7.267,10.119c.665,1-1.83,1.42-2.674.835-1.694-1.175-5.7-8.232-6.817-8.793s-5.679-.6-5.679-.6Z" transform="translate(-1777.503 -5272.943)" fill="#f8a588"/>
            <path id="Path_33901" data-name="Path 33901" d="M1784.177,5281.686s3.339-.092,5.3,1.266,5.972,8.332,6.824,9.593-1.97,1.4-2.882.683c-1.621-1.271-5.492-7.116-6.612-7.676a27.791,27.791,0,0,0-5.232-1.042Z" transform="translate(-1770.458 -5277.856)" fill="#f8a588"/>
            <path id="Path_33902" data-name="Path 33902" d="M1771.232,5291.287s3.227-.625,5.165.238,6.048,6.269,6.914,7.227-1.859,1.538-2.766,1.064c-1.609-.842-5.545-5.292-6.646-5.6a28.736,28.736,0,0,0-5.094-.053Z" transform="translate(-1761.346 -5284.555)" fill="#f8a588"/>
            <path id="Path_33903" data-name="Path 33903" d="M1760.486,5295.67s3.067-.9,4.568.211c1.112.82,5.187,4.762,5.952,5.609a.962.962,0,0,1-1.042,1.563c-1.423-.745-5.343-4.147-6.317-4.418a48.122,48.122,0,0,0-5.307-.418Z" transform="translate(-1753.876 -5287.594)" fill="#f8a588"/>
            <path id="Path_33904" data-name="Path 33904" d="M1783.128,5269.357s2.73-1.206,4.17-1.027c1.006.125,2.7,2.139,2.7,2.139l-1.716.313Z" transform="translate(-1771.568 -5268.312)" fill="#f8a588"/>
            <path id="Path_33905" data-name="Path 33905" d="M1759.825,5272.1l-7.448,8.861s-4.987,1.221-6.718-.739-3.44-2.627-2.765-3.8,7.926-5.1,10.947-5.627A9.74,9.74,0,0,1,1759.825,5272.1Z" transform="translate(-1742.743 -5270.015)" fill="#f8a588"/>
          </g>
        </g>
        <g id="Group_10532" data-name="Group 10532" transform="translate(67.151 115.542)">
          <g id="Group_10530" data-name="Group 10530" transform="translate(8.954)">
            <g id="Group_10529" data-name="Group 10529">
              <g id="Group_10528" data-name="Group 10528">
                <g id="Group_10527" data-name="Group 10527">
                  <path id="Path_33906" data-name="Path 33906" d="M1885.964,5230.4s25.1-8.445,33.775-15.526c3.374-2.754.886-8.642-2.319-9.914a15.424,15.424,0,0,0-8.823-.458c-3.577.855-23.467,17.879-25.476,19.591S1879.7,5229.69,1885.964,5230.4Z" transform="translate(-1881.418 -5204.074)" fill="#f8a588"/>
                </g>
              </g>
            </g>
          </g>
          <g id="Group_10531" data-name="Group 10531" transform="translate(0 15.435)">
            <path id="Path_33907" data-name="Path 33907" d="M1857,5270.33s-3.089,1.272-4.326,3.31-2.351,11.143-2.529,12.2c-.2,1.187,2.249.554,2.782-.323,1.07-1.763,1.861-9.837,2.657-10.8s4.943-2.859,4.943-2.859Z" transform="translate(-1850.136 -5266.8)" fill="#f8a588"/>
            <path id="Path_33908" data-name="Path 33908" d="M1869.277,5272.611s-3.089,1.272-4.327,3.31-2.073,10.039-2.339,11.537,2.369.478,2.912-.546c.965-1.821,2.128-8.733,2.923-9.7a27.769,27.769,0,0,1,4.358-3.078Z" transform="translate(-1859.027 -5268.428)" fill="#f8a588"/>
            <path id="Path_33909" data-name="Path 33909" d="M1882.24,5276.44s-3.2.74-4.623,2.315-2.98,8.187-3.382,9.413,2.324.65,2.959-.151c1.128-1.422,2.917-7.087,3.8-7.814a28.717,28.717,0,0,1,4.633-2.118Z" transform="translate(-1867.308 -5271.161)" fill="#f8a588"/>
            <path id="Path_33910" data-name="Path 33910" d="M1896.445,5276.078s-3.167.426-4.089,2.048c-.682,1.2-2.8,6.459-3.16,7.543a.961.961,0,0,0,1.587,1c1-1.259,3.2-5.96,3.978-6.6a48.119,48.119,0,0,1,4.68-2.539Z" transform="translate(-1877.974 -5270.903)" fill="#f8a588"/>
            <path id="Path_33911" data-name="Path 33911" d="M1874.352,5260.659s-2.984.008-4.228.756c-.869.522-1.6,3.053-1.6,3.053l1.7-.412Z" transform="translate(-1863.26 -5259.897)" fill="#f8a588"/>
            <path id="Path_33912" data-name="Path 33912" d="M1872.738,5261.955l10.4,5.071s5.052-.911,5.839-3.405,2.076-3.8.982-4.6-9.313-1.437-12.289-.693A9.736,9.736,0,0,0,1872.738,5261.955Z" transform="translate(-1866.268 -5257.999)" fill="#f8a588"/>
          </g>
        </g>
        <g id="laptop" transform="translate(47.8 94.318)">
          <path id="Path_33913" data-name="Path 33913" d="M1879.92,5184.7h65.507a5.79,5.79,0,0,0,5.457-4.646l7.948-45.48a3.807,3.807,0,0,0-3.833-4.645h-65.507a5.791,5.791,0,0,0-5.457,4.645l-7.948,45.48A3.807,3.807,0,0,0,1879.92,5184.7Z" transform="translate(-1849.258 -5129.928)" fill="#fff"/>
          <path id="Path_33914" data-name="Path 33914" d="M1884.173,5184.7h65.507a5.789,5.789,0,0,0,5.457-4.646l7.949-45.48a3.806,3.806,0,0,0-3.833-4.645h-65.507a5.79,5.79,0,0,0-5.457,4.645l-7.949,45.48A3.807,3.807,0,0,0,1884.173,5184.7Z" transform="translate(-1852.294 -5129.928)" fill="#e6e6e6"/>
          <path id="Path_33915" data-name="Path 33915" d="M1783.831,5323.13h96.084a1.519,1.519,0,0,0,1.487-1.39h0a1.283,1.283,0,0,0-1.293-1.389h-96.084a1.518,1.518,0,0,0-1.487,1.389h0A1.283,1.283,0,0,0,1783.831,5323.13Z" transform="translate(-1782.535 -5265.843)" fill="#e6e6e6"/>
        </g>
      </g>
      <g id="desk" transform="translate(0 151.605)">
        <g id="Group_10534" data-name="Group 10534" transform="translate(20.071 4.659)">
          <path id="Path_33916" data-name="Path 33916" d="M1395.924,5490.8l36.485-144.463h-21.394l-20.848,144.457Z" transform="translate(-1390.168 -5346.335)" fill="#414a82"/>
          <path id="Path_33917" data-name="Path 33917" d="M2138.2,5491.6l-20.968-145.264h-21.394l36.685,145.235Z" transform="translate(-1893.842 -5346.335)" fill="#414a82"/>
        </g>
        <g id="Group_10535" data-name="Group 10535">
          <rect id="Rectangle_3114" data-name="Rectangle 3114" width="270.3" height="4.71" transform="translate(7.04 3.054)" fill="#6b6e83"/>
          <rect id="Rectangle_3115" data-name="Rectangle 3115" width="284.38" height="5.065" rx="2.532" fill="#414a82"/>
        </g>
      </g>
    </g>
    <g id="Group_10536" data-name="Group 10536" transform="translate(1115.038 4651.273)">
      <path id="Path_33918" data-name="Path 33918" d="M1890.57,4973.683c2.815,3.4,6.192,6.314,6.827,8.045a82.653,82.653,0,0,1,1.94,12.266c-.042,1.435-2.015-.745-2.3-2.321s-3.037-8.548-3.037-8.548-7.737-4.745-8.99-5.827l-4.125-.585s-4.182,4.374-5.15,5.241-2.926.366-1.175-2.3,4.468-8.686,5.751-9.937c1.465-1.427,2.863-2.209,5.257-.992S1890.57,4973.683,1890.57,4973.683Z" transform="translate(-1873.859 -4968.127)" fill="#f8a588"/>
      <path id="Path_33919" data-name="Path 33919" d="M1915.6,4977.843s6.354,4.75,7.7,6.107,4.618,7.636,5.08,8.24-.551,1.833-1.946-.215a42.349,42.349,0,0,0-5.018-5.6c-.418-.316-6.047-3.862-7.38-4.526S1913.916,4976.568,1915.6,4977.843Z" transform="translate(-1902.129 -4974.904)" fill="#f8a588"/>
    </g>
    <g id="Group_10471" data-name="Group 10471" transform="translate(1207.853 4597.083)">
      <g id="Group_10466" data-name="Group 10466">
        <path id="Path_33796" data-name="Path 33796" d="M2208.188,4816.712c-2.737-.109-5.5-.328-8.224-.652a2,2,0,0,1-1.748-1.961c-.3-10.862.083-23.858.657-32.827a2.471,2.471,0,0,1,2.277-2.307c3.284-.177,6.6-.2,9.865-.071s6.557.415,9.8.85a2.266,2.266,0,0,1,1.92,2.474c-.766,8.961-2.322,21.911-4.239,32.686a2.182,2.182,0,0,1-2.03,1.812C2213.708,4816.821,2210.924,4816.82,2208.188,4816.712Z" transform="translate(-2198.11 -4778.812)" fill="#e6e6e6"/>
        <path id="Path_33797" data-name="Path 33797" d="M2217.111,4817.109a104.744,104.744,0,0,1-16.458-.652,1.747,1.747,0,0,1-1.531-1.716c-.275-9.934.036-23.117.655-32.8a2.187,2.187,0,0,1,2.025-2.051,104.843,104.843,0,0,1,19.614.776,2.007,2.007,0,0,1,1.708,2.2c-.827,9.677-2.482,22.807-4.236,32.661A1.911,1.911,0,0,1,2217.111,4817.109Z" transform="translate(-2198.761 -4779.47)" fill="#ccc"/>
        <path id="Path_33798" data-name="Path 33798" d="M2209.146,4848.113c-5.208-4.326-8.1-10.14-9.958-16.3-.194,6.644-.27,13.345-.083,20.1a1.747,1.747,0,0,0,1.531,1.716,104.752,104.752,0,0,0,16.458.652,1.91,1.91,0,0,0,1.778-1.585c.1-.561.194-1.12.292-1.681A14.648,14.648,0,0,1,2209.146,4848.113Z" transform="translate(-2198.744 -4816.641)" fill="#b3b3b3"/>
      </g>
      <g id="Group_10470" data-name="Group 10470" transform="translate(3.541 3.727)">
        <path id="Path_33799" data-name="Path 33799" d="M2211.739,4801.83h0a1.445,1.445,0,0,1-1.253-1.583l.537-7.068a1.4,1.4,0,0,1,1.474-1.344h0a1.444,1.444,0,0,1,1.252,1.582l-.537,7.068A1.406,1.406,0,0,1,2211.739,4801.83Z" transform="translate(-2210.482 -4791.831)" fill="#b3b3b3"/>
        <g id="Group_10467" data-name="Group 10467" transform="translate(0.826 1.153)">
          <path id="Path_33800" data-name="Path 33800" d="M2215.4,4797.041a1.042,1.042,0,0,1-1.1,1,1.072,1.072,0,0,1-.933-1.178,1.045,1.045,0,0,1,1.1-1A1.075,1.075,0,0,1,2215.4,4797.041Z" transform="translate(-2213.369 -4795.857)" fill="#999"/>
          <path id="Path_33801" data-name="Path 33801" d="M2214.493,4798.159a1,1,0,0,1-.866-1.095.971.971,0,0,1,1.02-.93,1,1,0,0,1,.866,1.1A.97.97,0,0,1,2214.493,4798.159Z" transform="translate(-2213.551 -4796.052)" fill="#1a1a1a"/>
        </g>
        <g id="Group_10468" data-name="Group 10468" transform="translate(0.617 3.907)">
          <path id="Path_33802" data-name="Path 33802" d="M2214.672,4806.665a1.044,1.044,0,0,1-1.1,1,1.073,1.073,0,0,1-.933-1.179,1.045,1.045,0,0,1,1.1-1A1.075,1.075,0,0,1,2214.672,4806.665Z" transform="translate(-2212.636 -4805.481)" fill="#999"/>
          <path id="Path_33803" data-name="Path 33803" d="M2213.762,4807.784a1,1,0,0,1-.866-1.095.969.969,0,0,1,1.02-.93,1,1,0,0,1,.866,1.095A.971.971,0,0,1,2213.762,4807.784Z" transform="translate(-2212.819 -4805.677)" fill="#1a1a1a"/>
        </g>
        <g id="Group_10469" data-name="Group 10469" transform="translate(0.408 6.662)">
          <path id="Path_33804" data-name="Path 33804" d="M2213.942,4816.289a1.045,1.045,0,0,1-1.1,1,1.074,1.074,0,0,1-.933-1.18,1.043,1.043,0,0,1,1.1-1A1.073,1.073,0,0,1,2213.942,4816.289Z" transform="translate(-2211.906 -4815.106)" fill="#999"/>
          <path id="Path_33805" data-name="Path 33805" d="M2213.03,4817.409a1,1,0,0,1-.866-1.095.97.97,0,0,1,1.02-.93,1,1,0,0,1,.867,1.094A.97.97,0,0,1,2213.03,4817.409Z" transform="translate(-2212.088 -4815.302)" fill="#1a1a1a"/>
        </g>
      </g>
    </g>
    <path id="Path_33811" data-name="Path 33811" d="M2087.635,4932.476c-1.286,6.6.388,10.719,5.119,12.721,5.119,2.165,11.265,1.358,13.321-5.548s13.855-47.466,13.855-47.466-5.049-5.337-7.621-3.347C2110.892,4889.933,2088.742,4926.795,2087.635,4932.476Z" transform="translate(-911.106 -259.941)" fill="#f0b297"/>
    <g id="Group_10537" data-name="Group 10537" transform="translate(1308.728 4658.755)">
      <g id="Group_10484-2" data-name="Group 10484" transform="translate(-92.929 -84.988) rotate(30)">
        <path id="Path_33823-2" data-name="Path 33823" d="M45.186,3.542,42.361,0,0,22.366l6.873,1.079S21.61,25.043,45.186,3.542Z" fill="#856861"/>
        <path id="Path_33824-2" data-name="Path 33824" d="M44.269,46.842l-7.286-1.786L0,0,7.582.994Z" transform="translate(0 22.366)" fill="#856861"/>
        <path id="Path_33825-2" data-name="Path 33825" d="M18.352,17.626,4.746.622,0,0,15.017,18.295Z" transform="translate(2.592 24.251)" fill="#fff"/>
        <path id="Path_33826-2" data-name="Path 33826" d="M0,22.415S20.375,8.226,39.068,0L66.993,52.238,37.142,68.322Z" transform="translate(7.126 0.886)" fill="#b28b81"/>
      </g>
    </g>
    <g id="Group_10474" data-name="Group 10474" transform="translate(1199.5 4607.44)">
      <g id="Group_10472" data-name="Group 10472" transform="translate(0 9.056)">
        <path id="Path_33806" data-name="Path 33806" d="M2169.133,4860.443c-1.621,6.242,6.745,10.149,10.082,8.2,2.188-1.276,1.269-5.675,2.889-11.917.68-2.619-2.359-9.175-2.6-10.1C2179.5,4846.635,2170.753,4854.2,2169.133,4860.443Z" transform="translate(-2168.927 -4846.635)" fill="#f0b297"/>
      </g>
      <g id="Group_10473" data-name="Group 10473" transform="translate(6.439)">
        <path id="Path_33807" data-name="Path 33807" d="M2206.231,4897.616a3.328,3.328,0,0,0-2.443.5c-1.194,1.359-1.995,3.639-3.923,4.81-.631.384-1.49-.054-2.1-.557a1.378,1.378,0,0,1-.178-1.926c1.547-1.539,3.283-3.942,5.077-5.213.815-.578,3.137-.342,4.654-.12a31.243,31.243,0,0,1,6.925,1.5c1.65.626-.12,2.117-1.854,1.673C2212.392,4898.292,2206.39,4897.672,2206.231,4897.616Z" transform="translate(-2195.599 -4872.009)" fill="#f0b297"/>
        <path id="Path_33808" data-name="Path 33808" d="M2191.62,4827.916c1.291-2.164,5.738-6.16,7.849-7.728s9.643-4.146,11.821-5.038,2.645,2.337-.224,3.576-9.8,4.631-9.8,4.631-4.048,5.723-4.808,7.151S2190.329,4830.08,2191.62,4827.916Z" transform="translate(-2191.42 -4814.997)" fill="#f0b297"/>
        <path id="Path_33809" data-name="Path 33809" d="M2206.507,4854.42l7.6-3.871s8.555-1.235,10.754-1.362,1.748,2.891-.922,3.226-9.241,1.592-9.241,1.592-7.857,5.1-8.571,5.825S2206.507,4854.42,2206.507,4854.42Z" transform="translate(-2201.742 -4839.397)" fill="#f0b297"/>
        <path id="Path_33810" data-name="Path 33810" d="M2202.29,4874.771l7.094-4.523s7.519-.929,9.718-1.056,1.748,2.89-.922,3.226-8.251,1.175-8.251,1.175-6.93,5.286-7.643,6.008S2202.29,4874.771,2202.29,4874.771Z" transform="translate(-2198.949 -4853.676)" fill="#f0b297"/>
      </g>
    </g>
  </g>
</svg>
