<svg xmlns="http://www.w3.org/2000/svg" width="443.716" height="288.026" viewBox="0 0 443.716 288.026">
  <g id="Login_illustration_1" data-name="Login illustration 1" transform="translate(-1336.284 -138.974)">
    <g id="Group_10411" data-name="Group 10411" transform="translate(272.741 95.587)">
      <g id="Group_10377" data-name="Group 10377" transform="translate(1215.205 43.387)">
        <path id="Path_33642" data-name="Path 33642" d="M1299.385,186.377c5.061,7.982,14.6,28.422,26.67,31.342s19.662,0,25.113-11.874,8.761-17.716,9.345-17.132,7.2,21.414,8.566,24.918,54.314,15.574,62.685,11.1S1444.417,216.94,1448.7,193s7.008-33.484,3.7-41.856-5.256-11.291-14.211-16.742-23.358-13.744-34.963-14.125c-7.4-.243-34.73,7.7-46.022,20.938s-27.449,49.059-28.617,49.837c-7.787-8.371-9.15-10.318-9.15-10.318S1297.827,183.651,1299.385,186.377Z" transform="translate(-1271.547 -61.76)" fill="#2d508e"/>
        <path id="Path_33643" data-name="Path 33643" d="M1396.394,115.042c2.076,4.023,5.581,7.786,12.59,6.618s13.415-10.021,10.641-15.393c-2.742-5.312-8.953-16.014-8.953-16.014,5.45-1.558,5.58-11.81-3.635-13.108-4.023-11.94-13.627-28.812-34.522-18.819s-19.585,13.217-18.286,20.355,5.7,10.533,10.5,19.23S1377.835,122.57,1396.394,115.042Z" transform="translate(-1284.521 -46.232)" fill="#f0b297"/>
        <path id="Path_33644" data-name="Path 33644" d="M1322.87,203.848a86.76,86.76,0,0,1-5.535-6.817s-22.193.1-20.635,2.823c1.052,1.66,4.345,8.729,5.766,11.2C1305.847,212.737,1316.713,213.932,1322.87,203.848Z" transform="translate(-1270.905 -80.104)" fill="#f0b297"/>
        <path id="Rectangle_3097" data-name="Rectangle 3097" d="M4.092,0H127.508A4.092,4.092,0,0,1,131.6,4.092V20.436a4.093,4.093,0,0,1-4.093,4.093H4.094A4.094,4.094,0,0,1,0,20.435V4.092A4.092,4.092,0,0,1,4.092,0Z" transform="translate(0 93.663)" fill="#f1e0d9"/>
        <path id="Path_33645" data-name="Path 33645" d="M1403.948,172.6v15.185h15.787c2.347,0,3.747-.661,3.747-3.257v-8.755c0-2.6-1.592-3.173-3.05-3.173Z" transform="translate(-1296.554 -74.266)" fill="#0e2b5c"/>
        <path id="Path_33646" data-name="Path 33646" d="M1329.778,172.6v15.185h-56.75c-2.347,0-3.747-.661-3.747-3.257v-8.755c0-2.6,1.591-3.173,3.049-3.173Z" transform="translate(-1264.372 -74.266)" fill="#84a5de"/>
        <rect id="Rectangle_3098" data-name="Rectangle 3098" width="42.63" height="15.185" transform="translate(64.891 98.335)" fill="#32548f"/>
        <path id="Path_33647" data-name="Path 33647" d="M1396.987,210.782c-1.168-2.53-1.46-5.548-2.919-6.715s-2.336-2.24-4.186-1.266-4.186-.195-5.354-2.142c-2.142.973-3.115.1-3.115.1-2.14,1.168-4.672,1.655-6.91-2.238s.779-11.291,3.991-4.478c.195-4.024,2.531-6.488,4.089-5.71a2.744,2.744,0,0,1,1.46,2.5c.552-3.017,4.25-4.186,4.769.487,1.558-2.142,2.336-1.558,4.186,1.265s1.135,3.18,4.641,2.888c1.621-1.038,8.533-2.433,10.577-.779s4.446,5.387,6.879,7.82C1411.878,209.562,1401.789,213.508,1396.987,210.782Z" transform="translate(-1289.332 -77.99)" fill="#f0b297"/>
        <path id="Path_33648" data-name="Path 33648" d="M1287.616,192.092c-1.412-2.943-5.059-4.239-5.65-.473s3.413,12,9.063,9.886c5.691,1.22,7.368,2.456,9.134,2.1s10.87,1.311,12.4-5.162c-4.12.118-5.412-.471-5.412-.471-2.237-2.942-5.061-6.119-6.237-5.883s-.942,1.881-.942,1.881c-1.3-4.118-2.588-5.53-4-5.53s-2.353,2.352-2.353,2.352C1292.439,187.031,1288.792,184.443,1287.616,192.092Z" transform="translate(-1267.39 -77.743)" fill="#f0b297"/>
        <g id="Group_10361" data-name="Group 10361" transform="translate(19.845 113.968)">
          <path id="Path_33649" data-name="Path 33649" d="M1301.966,205.259a10.033,10.033,0,0,1-2.411-.364c-.207-.049-.414-.1-.625-.145a17.858,17.858,0,0,0-1.82-.26,8.942,8.942,0,0,1-4.913-1.568c-2.847-2.307-3.167-7.443-3.288-9.376a.382.382,0,0,1,.357-.4.373.373,0,0,1,.4.355c.116,1.842.421,6.737,3.008,8.832a8.244,8.244,0,0,0,4.518,1.4,18.67,18.67,0,0,1,1.9.272c.215.047.428.1.641.148,1.75.418,3.4.813,6.626-1.16a.38.38,0,0,1,.4.649A9.063,9.063,0,0,1,1301.966,205.259Z" transform="translate(-1288.907 -193.143)" fill="#e49674"/>
        </g>
        <g id="Group_10362" data-name="Group 10362" transform="translate(25.687 112.673)">
          <path id="Path_33650" data-name="Path 33650" d="M1302.536,202.911a.382.382,0,0,1-.131-.024c-6.524-2.371-5.937-8.3-5.686-10.832l.026-.269a.376.376,0,0,1,.415-.342.381.381,0,0,1,.343.415l-.027.272c-.252,2.555-.778,7.873,5.19,10.043a.381.381,0,0,1-.129.738Z" transform="translate(-1296.583 -191.441)" fill="#e49674"/>
        </g>
        <g id="Group_10363" data-name="Group 10363" transform="translate(37.467 117.586)">
          <path id="Path_33651" data-name="Path 33651" d="M1315.291,200.832a2.4,2.4,0,0,1-1.2-.317,4.928,4.928,0,0,1-1.988-2.063.381.381,0,0,1,.677-.348,4.206,4.206,0,0,0,1.671,1.741,1.889,1.889,0,0,0,1.275.2c.2-.017.411-.036.656-.036a.381.381,0,0,1,0,.761c-.22,0-.412.017-.588.033S1315.461,200.832,1315.291,200.832Z" transform="translate(-1312.062 -197.897)" fill="#e49674"/>
        </g>
        <g id="Group_10364" data-name="Group 10364" transform="translate(32.286 116.093)">
          <path id="Path_33652" data-name="Path 33652" d="M1312.669,204.714a4.87,4.87,0,0,1-1.271-.161,8.331,8.331,0,0,1-4.924-4.048,7.559,7.559,0,0,1-.881-2.677,12.132,12.132,0,0,0-.323-1.4.381.381,0,1,1,.726-.228,12.945,12.945,0,0,1,.345,1.484,6.833,6.833,0,0,0,.782,2.422,7.611,7.611,0,0,0,4.458,3.708,5.491,5.491,0,0,0,3.071-.2.381.381,0,1,1,.228.726A7.43,7.43,0,0,1,1312.669,204.714Z" transform="translate(-1305.254 -195.935)" fill="#e49674"/>
        </g>
        <g id="Group_10365" data-name="Group 10365" transform="translate(107.04 115.767)">
          <path id="Path_33653" data-name="Path 33653" d="M1407.059,202.813a3.928,3.928,0,0,1-2.208-.581,3.348,3.348,0,0,1-1.326-3.378c.409-2.963,4.176-3.14,7.821-3.311l.713-.034a.367.367,0,0,1,.4.361.38.38,0,0,1-.36.4l-.716.034c-3.487.164-6.781.319-7.1,2.655a2.655,2.655,0,0,0,.99,2.638c.951.624,3.4,1.151,9.144-2.333a.38.38,0,1,1,.395.65C1411.183,202.112,1408.721,202.813,1407.059,202.813Z" transform="translate(-1403.482 -195.507)" fill="#e49674"/>
        </g>
        <g id="Group_10366" data-name="Group 10366" transform="translate(98.909 112.166)">
          <path id="Path_33654" data-name="Path 33654" d="M1397.8,203.19a3.243,3.243,0,0,1-.809-.1c-1.485-.385-2.628-1.816-3.6-4.5-.67-1.861-1.087-6.021.47-7.689a.381.381,0,0,1,.557.52c-1.215,1.3-.991,5.021-.31,6.912.864,2.4,1.869,3.712,3.072,4.024,1.239.322,2.787-.349,4.734-2.049a.381.381,0,1,1,.5.574C1400.643,202.426,1399.123,203.19,1397.8,203.19Z" transform="translate(-1392.798 -190.776)" fill="#e49674"/>
        </g>
        <g id="Group_10367" data-name="Group 10367" transform="translate(93.929 111.972)">
          <path id="Path_33655" data-name="Path 33655" d="M1390.788,203.821a3.136,3.136,0,0,1-1.9-.633c-2.975-2.2-3.017-9.847-2.111-12.415a.381.381,0,0,1,.719.253c-.8,2.277-.77,9.618,1.845,11.549,1.154.855,2.729.558,4.675-.884a.38.38,0,1,1,.453.611A6.443,6.443,0,0,1,1390.788,203.821Z" transform="translate(-1386.254 -190.521)" fill="#e49674"/>
        </g>
        <g id="Group_10368" data-name="Group 10368" transform="translate(88.586 115.281)">
          <path id="Path_33656" data-name="Path 33656" d="M1383.778,202.883a3.036,3.036,0,0,1-1.549-.42c-2.264-1.314-3-5.428-3-7.215a.381.381,0,0,1,.761,0c0,1.578.66,5.42,2.618,6.556a2.939,2.939,0,0,0,3.042-.267.381.381,0,1,1,.377.661A4.585,4.585,0,0,1,1383.778,202.883Z" transform="translate(-1379.233 -194.868)" fill="#e49674"/>
        </g>
        <g id="Group_10369" data-name="Group 10369" transform="translate(125.281 124.042)">
          <path id="Path_33657" data-name="Path 33657" d="M1448.826,220.631a.38.38,0,0,1-.217-.067c-.287-.2-1.086-.621-2.1-1.155a87.7,87.7,0,0,1-10.526-6.291c-2.021-1.477-3.5-2.719-4.689-3.717-1.669-1.4-2.677-2.248-3.472-2.26a.381.381,0,0,1-.374-.387.4.4,0,0,1,.386-.374c1.065.017,2.09.877,3.949,2.438,1.18.991,2.648,2.223,4.648,3.685a87,87,0,0,0,10.432,6.233c1.114.588,1.85.976,2.175,1.2a.381.381,0,0,1-.217.693Z" transform="translate(-1427.452 -206.38)" fill="#151748"/>
        </g>
        <g id="Group_10370" data-name="Group 10370" transform="translate(144.166 100.582)">
          <path id="Path_33658" data-name="Path 33658" d="M1452.648,211.941a.406.406,0,0,1-.074-.007.381.381,0,0,1-.3-.447c1.183-6,6.9-24.153,9.347-31.9.6-1.9,1.024-3.252,1.173-3.755a.381.381,0,1,1,.73.216c-.151.505-.576,1.858-1.178,3.767-2.438,7.74-8.15,25.866-9.326,31.824A.38.38,0,0,1,1452.648,211.941Z" transform="translate(-1452.267 -175.554)" fill="#151748"/>
        </g>
        <path id="Path_33659" data-name="Path 33659" d="M1353.615,63.152c-2.091,5.094-1.744,12.647-.633,13.318,3.7,2.24,8.271,1.333,16.708-1.651S1386.82,62.49,1386.82,62.49c.52,7.268,3.246,9.734,4.8,12.2s3.894.26,5.971,1.947,4.6,6.5,5.636,6.894,2.539-2.74,1.76-7.023c2.467-1.688,5.574-.659,6.612-.01,1.3-8.307-2.071-19.978-8.558-25.3s-18.948-10.253-29.72-6.489A32.064,32.064,0,0,0,1353.615,63.152Z" transform="translate(-1284.162 -43.387)" fill="#151748"/>
        <g id="Group_10373" data-name="Group 10373" transform="translate(111.493 46.95)">
          <path id="Path_33662" data-name="Path 33662" d="M1409.713,127.322a.381.381,0,0,1-.214-.7l.518-.35c4.1-2.763,10.972-7.387,9.505-20.774a.38.38,0,0,1,.336-.42.385.385,0,0,1,.42.336c1.517,13.845-5.868,18.817-9.837,21.489l-.515.348A.375.375,0,0,1,1409.713,127.322Z" transform="translate(-1409.333 -105.08)" fill="#e49674"/>
        </g>
        <g id="Group_10374" data-name="Group 10374" transform="translate(110.389 62.524)">
          <path id="Path_33667" data-name="Path 33667" d="M1420.577,143.868c-4.992,0-9.965-1.88-12.645-6.66a.381.381,0,0,1,.664-.373c3.735,6.661,12.254,7.343,18.589,5.157,5.934-2.047,12.393-7.469,11.072-16.009a.381.381,0,0,1,.752-.117c1.393,9.005-5.365,14.7-11.576,16.845A21.267,21.267,0,0,1,1420.577,143.868Z" transform="translate(-1407.884 -125.545)" fill="#151748"/>
        </g>
        <g id="Group_10375" data-name="Group 10375" transform="translate(56.075 128.26)">
          <path id="Path_33668" data-name="Path 33668" d="M1343.382,218.913a.38.38,0,0,1-.251-.1,82.956,82.956,0,0,1-6.545-6.291.38.38,0,1,1,.615-.447,85.708,85.708,0,0,0,6.432,6.167.381.381,0,0,1-.252.666Z" transform="translate(-1336.513 -211.923)" fill="#151748"/>
        </g>
        <g id="Group_10376" data-name="Group 10376" transform="translate(107.274 132.412)">
          <path id="Path_33669" data-name="Path 33669" d="M1415.268,235.175a.38.38,0,0,1-.242-.088c-2.237-1.849-10.007-13.48-11.217-17.211a.38.38,0,1,1,.724-.234c1.15,3.546,8.851,15.1,10.977,16.858a.38.38,0,0,1-.242.674Z" transform="translate(-1403.79 -217.379)" fill="#151748"/>
        </g>
      </g>
      <g id="Group_10381" data-name="Group 10381" transform="translate(1180.919 184.561)">
        <path id="Path_33670" data-name="Path 33670" d="M1419.461,375.744V246.023a17.131,17.131,0,0,0-17.13-17.131H1234.909a17.132,17.132,0,0,0-17.132,17.131V375.744Z" transform="translate(-1217.777 -228.892)" fill="#f1e0d9"/>
        <g id="Group_10378" data-name="Group 10378" transform="translate(122.462 88.94)">
          <path id="Path_33671" data-name="Path 33671" d="M1416.909,364.867a19.107,19.107,0,1,1-19.107-19.106A19.107,19.107,0,0,1,1416.909,364.867Z" transform="translate(-1378.694 -345.761)" fill="#fdbc47"/>
          <path id="Path_33672" data-name="Path 33672" d="M1411.388,367.394a11.061,11.061,0,1,1-11.06-11.059A11.059,11.059,0,0,1,1411.388,367.394Z" transform="translate(-1381.221 -348.288)" fill="#e99c11"/>
        </g>
        <g id="Group_10379" data-name="Group 10379" transform="translate(28.68 88.382)">
          <path id="Rectangle_3099" data-name="Rectangle 3099" d="M9.209,0H69.5A9.209,9.209,0,0,1,78.7,9.209v21.6A9.209,9.209,0,0,1,69.5,40.015H9.21A9.21,9.21,0,0,1,0,30.8V9.209A9.209,9.209,0,0,1,9.209,0Z" fill="#f6dba9"/>
          <path id="Path_33673" data-name="Path 33673" d="M1271.936,355.011a3.476,3.476,0,1,1-3.476-3.476A3.475,3.475,0,0,1,1271.936,355.011Z" transform="translate(-1257.738 -346.582)" fill="#f1efef"/>
          <path id="Rectangle_3100" data-name="Rectangle 3100" d="M3.069,0H28.621A3.068,3.068,0,0,1,31.69,3.068v.813A3.069,3.069,0,0,1,28.62,6.951H3.07A3.07,3.07,0,0,1,0,3.881V3.069A3.069,3.069,0,0,1,3.069,0Z" transform="translate(19.427 4.953)" fill="#f1efef"/>
          <path id="Path_33674" data-name="Path 33674" d="M1271.936,370.676a3.476,3.476,0,1,1-3.476-3.476A3.475,3.475,0,0,1,1271.936,370.676Z" transform="translate(-1257.738 -350.326)" fill="#32548f"/>
          <path id="Rectangle_3101" data-name="Rectangle 3101" d="M3.069,0H35.234A3.068,3.068,0,0,1,38.3,3.068v.813a3.069,3.069,0,0,1-3.069,3.069H3.07A3.07,3.07,0,0,1,0,3.881V3.069A3.069,3.069,0,0,1,3.069,0Z" transform="translate(19.427 16.874)" fill="#32548f"/>
          <path id="Path_33675" data-name="Path 33675" d="M1271.936,386.341a3.476,3.476,0,1,1-3.476-3.476A3.476,3.476,0,0,1,1271.936,386.341Z" transform="translate(-1257.738 -354.07)" fill="#0e2b5c"/>
          <path id="Rectangle_3102" data-name="Rectangle 3102" d="M3.07,0H46.661A3.068,3.068,0,0,1,49.73,3.068v.813a3.07,3.07,0,0,1-3.07,3.07H3.07A3.07,3.07,0,0,1,0,3.882V3.07A3.07,3.07,0,0,1,3.07,0Z" transform="translate(19.427 28.796)" fill="#0e2b5c"/>
        </g>
        <g id="Group_10380" data-name="Group 10380" transform="translate(68.186 24.663)">
          <path id="Path_33676" data-name="Path 33676" d="M1357.35,303.993h-44.326l-4.29,7.428c-3.188,5.521-.58,10.039,5.8,10.039h41.31c6.378,0,8.985-4.518,5.8-10.039Z" transform="translate(-1307.374 -271.503)" fill="#0e2b5c"/>
          <path id="Path_33677" data-name="Path 33677" d="M1314.074,301.825H1359.5l-6.29-10.9h-32.848Z" transform="translate(-1308.975 -268.381)" fill="#32548f"/>
          <path id="Path_33678" data-name="Path 33678" d="M1321.3,288.426h34.436l-7.928-13.733h-18.579Z" transform="translate(-1310.701 -264.501)" fill="#e99c11"/>
          <path id="Path_33679" data-name="Path 33679" d="M1351.234,273.867l-4.863-8.425c-3.188-5.523-8.406-5.523-11.594,0l-4.864,8.425Z" transform="translate(-1312.76 -261.3)" fill="#fdbc47"/>
        </g>
      </g>
      <g id="Group_10397" data-name="Group 10397" transform="translate(1322.109 162.536)">
        <path id="Path_33680" data-name="Path 33680" d="M1506.409,224.5c-1.752-6.619-.842-14.406,13.953-21.285s43.347-3.893,48.8,18.819-.518,34.262,10.514,48.539,31.406,30.888,13.756,50.486c-30.37,21.414-79.557-3.245-83.97-15.185s2.6-31.018,12.719-46.982S1508.29,234.75,1506.409,224.5Z" transform="translate(-1427.787 -199.951)" fill="#151748"/>
        <path id="Path_33681" data-name="Path 33681" d="M1532.458,277.1c-.195-2.531-.779-9.151-.779-9.151-14.406,3.5-23.946-7.982-23.556-19.857s.39-12.654-1.557-21.8,15.38-20.246,32.315-18.688,14.666,10.187,12.136,26.734c-.389,4.478,2.141,11.357,2.141,11.357.585,9.8.324,31.213.324,31.213S1542,283.525,1532.458,277.1Z" transform="translate(-1427.945 -201.744)" fill="#f0b297"/>
        <path id="Path_33682" data-name="Path 33682" d="M1529.978,304.385c3.829-.454,8.371-1.168,8.371-1.168s-.585-5.516-.714-6.424.455-1.039,1.751-.649a31.324,31.324,0,0,0,18.235-1.3c2.141-.714,2.143-.584,2.467,2.011s.841,4.932.841,4.932,2.466,1.3,9.151,1.882C1561.9,313.405,1537.634,320.737,1529.978,304.385Z" transform="translate(-1433.575 -222.539)" fill="#dcd8f0"/>
        <path id="Path_33683" data-name="Path 33683" d="M1567.694,251.493c2.724-2.856,9.084-4.673,11.291,1.3s-6.88,14.275-13.109,7.916A44.68,44.68,0,0,0,1567.694,251.493Z" transform="translate(-1442.154 -211.632)" fill="#f0b297"/>
        <path id="Path_33684" data-name="Path 33684" d="M1506.864,226.762c2.464-5.19,16.481-12.848,23.489-13.756,2.986,17.78,7.463,28.293,17.2,26.086,2.205,9.474,2.921,9.344,4.348,8.826s2.205-5.645,2.6-8.241c4.413-3.246,6.748-8.242,6.23-15.64s-6.749-23.232-27.384-19.468S1503.88,215.73,1506.864,226.762Z" transform="translate(-1427.917 -200.918)" fill="#151748"/>
        <g id="Group_10385" data-name="Group 10385" transform="translate(103.354 50.933)">
          <path id="Path_33688" data-name="Path 33688" d="M1539.492,282.531a.38.38,0,0,1-.12-.741c1.479-.493,14.568-5.094,18.358-14.672a.38.38,0,0,1,.708.279c-3.918,9.9-17.311,14.61-18.825,15.115A.373.373,0,0,1,1539.492,282.531Z" transform="translate(-1539.112 -266.877)" fill="#e49674"/>
        </g>
        <path id="Path_33693" data-name="Path 33693" d="M1425.793,337.541c-.454-1.688-1.233-4.348-1.233-4.348a3.824,3.824,0,0,1-4.282-.13c-3.179.909-5.516.454-7.721-2.531-3.376,2.012-8.7-.714-9.215-3.114s4.413-.843,7.332.389c-.972-4.931.131-6.1.974-5.9s2.466.26,4.607,5.062c-.583-5.581,1.622-5.062,2.985-3.569a25.562,25.562,0,0,1,2.985,5.321l1.689-.454c-.909-2.79-1.234-5.45,0-5.969s2.919-.324,5.125,5.256c4.089-.844,8.437-2.791,10.06-.713s3.309,7.138,3.309,7.138S1439.939,343.771,1425.793,337.541Z" transform="translate(-1403.303 -229.089)" fill="#f0b297"/>
        <path id="Path_33694" data-name="Path 33694" d="M1507.455,306.985c-4.542.909-11.29-.648-16.611,1.428s-9.734,8.175-15.964,23.1-11.94,25.437-11.94,25.437c-3.5-7.917-12.07-25.048-12.979-26.864s-1.558,1.427-6.359,2.985-10.513.909-11.551.129,0,3.374,2.855,10.9,9.473,28.162,14.017,35.82,18.171,15.185,28.033,1.688,15.7-29.851,15.7-29.851l8.306,41.92h58.664l.518-34.651s14.277,27.9,10.642,34.651c8.7,0,23.88.26,23.88.26a27.08,27.08,0,0,0-1.15-15.008c-3.5-9.624-7.93-21.569-10.659-28.079-5.062-12.071-11.421-28.424-15.185-33.1s-6.118-8.353-21.285-11.551c-1.233-.26-1.494.776-5.971,3.049s-20.707,6.329-29.785.39C1509.08,308.627,1508.234,306.921,1507.455,306.985Z" transform="translate(-1410.079 -225.334)" fill="#a9b9f8"/>
        <path id="Path_33695" data-name="Path 33695" d="M1551.629,309.257a1.273,1.273,0,1,1-1.234-1.589A1.447,1.447,0,0,1,1551.629,309.257Z" transform="translate(-1438.16 -225.693)" fill="#151748"/>
        <g id="Group_10388" data-name="Group 10388" transform="translate(104.393 75.134)">
          <path id="Path_33696" data-name="Path 33696" d="M1543.374,307.125c-.934,0-1.868-.893-2.851-2.724a.38.38,0,1,1,.67-.359c1.1,2.055,1.869,2.32,2.212,2.322.6-.027,1.084-.873,1.386-1.578.961-2.242,2.434-5.836,2.448-5.871a.381.381,0,0,1,.7.288c-.014.037-1.49,3.635-2.453,5.883-.566,1.317-1.255,2-2.052,2.038Z" transform="translate(-1540.477 -298.678)" fill="#4d61ae"/>
        </g>
        <g id="Group_10389" data-name="Group 10389" transform="translate(112.568 75.365)">
          <path id="Path_33697" data-name="Path 33697" d="M1557.1,307.936q-.233,0-.464-.017c-3.04-.234-4.009-3.649-4.864-6.663-.176-.621-.347-1.223-.531-1.772a.381.381,0,0,1,.722-.241c.187.56.361,1.173.54,1.805.788,2.775,1.68,5.919,4.19,6.112,3.386.256,7.029-2.775,8.641-4.609a.381.381,0,1,1,.572.5C1564.27,304.913,1560.647,307.936,1557.1,307.936Z" transform="translate(-1551.219 -298.982)" fill="#4d61ae"/>
        </g>
        <g id="Group_10390" data-name="Group 10390" transform="translate(79.312 112.256)">
          <path id="Path_33698" data-name="Path 33698" d="M1511.211,363.695a.381.381,0,0,1-.372-.3c-.491-2.258-.994-4.429-1.455-6.422-.931-4.022-1.667-7.2-1.862-9.1a.381.381,0,0,1,.757-.079c.191,1.85.957,5.164,1.846,9,.463,2,.966,4.17,1.458,6.433a.381.381,0,0,1-.372.461Z" transform="translate(-1507.52 -347.457)" fill="#4d61ae"/>
        </g>
        <g id="Group_10391" data-name="Group 10391" transform="translate(141.802 117.805)">
          <path id="Path_33699" data-name="Path 33699" d="M1598.969,373.614a.379.379,0,0,1-.356-.249c-1.677-4.551-5.28-11.249-7.665-15.682-.495-.92-.928-1.727-1.271-2.377a.38.38,0,1,1,.674-.354c.341.646.775,1.452,1.268,2.371,2.4,4.451,6.014,11.178,7.708,15.779a.38.38,0,0,1-.225.489A.374.374,0,0,1,1598.969,373.614Z" transform="translate(-1589.634 -354.749)" fill="#4d61ae"/>
        </g>
        <g id="Group_10392" data-name="Group 10392" transform="translate(6.86 96.973)">
          <path id="Path_33700" data-name="Path 33700" d="M1416.4,334.237a.38.38,0,0,1-.257-.1,17.031,17.031,0,0,1-3.809-6.284.38.38,0,0,1,.736-.192,16.34,16.34,0,0,0,3.587,5.915.381.381,0,0,1-.257.661Z" transform="translate(-1412.318 -327.375)" fill="#e49674"/>
        </g>
        <g id="Group_10393" data-name="Group 10393" transform="translate(12.247 96.585)">
          <path id="Path_33701" data-name="Path 33701" d="M1424.577,334.894a.371.371,0,0,1-.175-.043c-3.227-1.678-4.363-5.426-4.909-7.228l-.08-.265a.38.38,0,0,1,.727-.223l.081.267c.516,1.7,1.59,5.244,4.532,6.775a.38.38,0,0,1-.176.718Z" transform="translate(-1419.396 -326.865)" fill="#e49674"/>
        </g>
        <g id="Group_10394" data-name="Group 10394" transform="translate(20.228 98.336)">
          <path id="Path_33702" data-name="Path 33702" d="M1435.427,334.83a4.827,4.827,0,0,1-2.115-.465c-1.543-.741-2.658-2.28-3.412-4.705a.38.38,0,0,1,.727-.225c.687,2.212,1.673,3.6,3.014,4.245a5.263,5.263,0,0,0,4.271-.139.381.381,0,0,1,.278.709A7.619,7.619,0,0,1,1435.427,334.83Z" transform="translate(-1429.883 -329.167)" fill="#e49674"/>
        </g>
        <g id="Group_10395" data-name="Group 10395" transform="translate(24.964 97.039)">
          <path id="Path_33703" data-name="Path 33703" d="M1437.721,331.078a.383.383,0,0,1-.341-.21c-.03-.06-.729-1.463-1.25-2.9a.38.38,0,1,1,.715-.26c.507,1.391,1.21,2.8,1.217,2.815a.381.381,0,0,1-.34.551Z" transform="translate(-1436.106 -327.461)" fill="#e49674"/>
        </g>
        <g id="Group_10396" data-name="Group 10396" transform="translate(20.098 102.425)">
          <path id="Path_33704" data-name="Path 33704" d="M1430.092,336.858a.38.38,0,0,1-.074-.753,8.066,8.066,0,0,0,2.427-1.476.38.38,0,0,1,.489.583,8.674,8.674,0,0,1-2.766,1.639A.361.361,0,0,1,1430.092,336.858Z" transform="translate(-1429.712 -334.539)" fill="#e49674"/>
        </g>
        <path id="Path_33923" data-name="Path 33923" d="M.741-.041A6.9,6.9,0,0,1,3.465.475,7.192,7.192,0,0,1,5.812,2.031a6.612,6.612,0,0,1,1.6,2.505c-.791-.5-1.513-.981-2.26-1.4A19.75,19.75,0,0,0,2.9,2.038a19.18,19.18,0,0,0-2.37-.795C-.288,1.021-.195-.017.741-.041Z" transform="matrix(0.966, -0.259, 0.259, 0.966, 101.658, 33.591)" fill="#1a1a1a"/>
        <path id="Path_33924" data-name="Path 33924" d="M7.993.493A6.914,6.914,0,0,0,5.322-.241a7.353,7.353,0,0,0-2.813.36A6.808,6.808,0,0,0-.077,1.656c.937-.1,1.8-.214,2.662-.258a20.2,20.2,0,0,1,2.524.007,19.337,19.337,0,0,1,2.483.329C8.424,1.894,8.818.925,7.993.493Z" transform="matrix(0.966, -0.259, 0.259, 0.966, 82.496, 35.031)" fill="#1a1a1a"/>
        <path id="Path_33925" data-name="Path 33925" d="M1.212,1.465a4.318,4.318,0,0,1-.352.522,1.117,1.117,0,0,1-.436.4c-.166.058-.365-.06-.457-.4a1.519,1.519,0,0,1-.023-.61,2.1,2.1,0,0,1,.249-.7A1.785,1.785,0,0,1,.663.141a1.025,1.025,0,0,1,.5-.205c.3-.029.474.139.49.34A1.393,1.393,0,0,1,1.5.892,4.487,4.487,0,0,1,1.212,1.465Z" transform="matrix(0.966, -0.259, 0.259, 0.966, 97.085, 44.738)" fill="#f2f2f2" style="mix-blend-mode: soft-light;isolation: isolate"/>
        <path id="Path_33926" data-name="Path 33926" d="M1.123,3.072c.009-.148.017-.281.028-.4s.022-.219.036-.322A2.724,2.724,0,0,1,1.262,2c.037-.131.086-.274.139-.421A6.114,6.114,0,0,0,1.676.724.98.98,0,0,0,1.638.071a.241.241,0,0,0-.363-.108A2.048,2.048,0,0,0,.7.5,3.907,3.907,0,0,0,.039,1.693a3.257,3.257,0,0,0-.155.8,4.051,4.051,0,0,0,.029.791,4.614,4.614,0,0,0,.147.7,5.082,5.082,0,0,0,.211.59,6.265,6.265,0,0,0,.443.851c.275.429.46.6.638.4a.984.984,0,0,0,.13-.909c-.045-.221-.129-.484-.214-.8-.041-.156-.083-.324-.112-.5A2.769,2.769,0,0,1,1.123,3.072Z" transform="matrix(0.966, -0.259, 0.259, 0.966, 94.947, 43.927)" fill="#d1785e"/>
        <g id="Group_10540" data-name="Group 10540" transform="matrix(0.966, -0.259, 0.259, 0.966, 101.67, 38.533)">
          <path id="Path_33891" data-name="Path 33891" d="M-.116,2.746C.251,1.3,2.48-.476,3.811-.152h0A2.341,2.341,0,0,1,5.19,2.821L4.886,4C4.538,5.354-.482,4.2-.116,2.746Z" transform="translate(0 0)" fill="#1a1a1a"/>
          <path id="Path_33892" data-name="Path 33892" d="M0,0A3.3,3.3,0,0,1,2.538,1.361c.99,1.38,2.018,1.006,2.018,1.006A1.959,1.959,0,0,1,2.124,2.3C1.046,1.255.354,1.425.354,1.425Z" transform="translate(3.319 -0.183)" fill="#1a1a1a"/>
        </g>
        <g id="Group_10541" data-name="Group 10541" transform="matrix(0.966, -0.259, 0.259, 0.966, 83.081, 39.088)">
          <path id="Path_33893" data-name="Path 33893" d="M4.882,4.285C5.249,2.833,4.12.24,2.789-.085h0A2.381,2.381,0,0,0,.158,1.906L-.134,3.087C-.47,4.446,4.516,5.735,4.882,4.285Z" transform="translate(1.908 -0.001)" fill="#1a1a1a"/>
          <path id="Path_33894" data-name="Path 33894" d="M5.147.111a3.332,3.332,0,0,0-2.89.034C.725.909,0,.1,0,.1A1.939,1.939,0,0,0,2.178,1.164c1.448-.423,1.978.045,1.978.045Z" transform="translate(0 0)" fill="#1a1a1a"/>
        </g>
        <path id="Path_33927" data-name="Path 33927" d="M.184,1.007a9.04,9.04,0,0,0,10.625.711c.545-.317.115-1.216-.424-.9A8.274,8.274,0,0,1,.674.039C.484-.127.168.043.046.28a.583.583,0,0,0,.138.727Z" transform="matrix(0.966, -0.259, 0.259, 0.966, 92.096, 52.024)" fill="#a33939"/>
      </g>
      <g id="Group_10398" data-name="Group 10398" transform="translate(1194.439 177.996)">
        <path id="Path_33705" data-name="Path 33705" d="M1287.458,246.223a25.957,25.957,0,1,1-25.957-25.957A25.956,25.956,0,0,1,1287.458,246.223Z" transform="translate(-1235.543 -220.266)" fill="#84a5de"/>
        <path id="Path_33706" data-name="Path 33706" d="M1291.716,232.553a25.935,25.935,0,0,0-22.064-12.288v25.957S1284.37,238.267,1291.716,232.553Z" transform="translate(-1243.694 -220.266)" fill="#32548f"/>
        <path id="Path_33707" data-name="Path 33707" d="M1269.652,249.782l25.643,4.037a26.259,26.259,0,0,0,.313-4.037,25.841,25.841,0,0,0-4.511-14.624C1283.641,240.284,1269.652,249.782,1269.652,249.782Z" transform="translate(-1243.694 -223.825)" fill="#151748"/>
      </g>
      <g id="Group_10409" data-name="Group 10409" transform="translate(1063.543 157.28)">
        <path id="Path_33708" data-name="Path 33708" d="M1123.2,204.736c-2.238-5.5-11.189-15.85-24.861-9.906s-14.294,17.281-19.019,31.809-12.431,29.716-14.792,37.2-1.118,19.592,10.69,17.389c-.5,9.686,14.072,11.395,20.324,7.7,10.628-6.272,8.372-17.617,8.372-17.617,5.1,2.092,19.482-2.885,14.611-17.689-7.038-21.391-9.393-44.605,1.624-44.605C1127.424,203.574,1123.2,204.736,1123.2,204.736Z" transform="translate(-1063.542 -193.044)" fill="#151748"/>
        <path id="Path_33709" data-name="Path 33709" d="M1143.861,208.626c-1.9-2.07-4.754-3.661-7.132-.111-2.066,3.087-2.971,6.88,1.072,7.693C1140.452,216.742,1144.813,212.325,1143.861,208.626Z" transform="translate(-1080.613 -196.24)" fill="#5fb0a2"/>
        <path id="Path_33710" data-name="Path 33710" d="M1150.594,274.524c.518-2.336,2.222-14.419,2.222-14.419l6.491-9.6c-7.106-7.462,3.5-19.337,9.214-9.6,2.6-.649,2.077-20.9,6.1-23.88s16.095-2.077,16.095-2.077c3.245,3.894,4.282,9.475,3.5,15.7s-1.948,8.048,1.039,11.032,5.58,5.192.908,8.566c-2.855,1.947-2.985,2.724-3.5,6.359s-.909,7.788-7.01,9.345a32.717,32.717,0,0,1-12.459.908c-.908-.129-2.335,6.75-2.985,10.383S1150.594,274.524,1150.594,274.524Z" transform="translate(-1084.346 -198.246)" fill="#f0b297"/>
        <path id="Path_33711" data-name="Path 33711" d="M1245.094,307.385c3.763-4.153,6.229-8.826,11.551-9.6s8.955-1.038,11.68-1.817,3.245-1.817,4.8,0c.779-5.321,3.375-7.527,4.284-3.893,1.945-3.763,4.67-3.374,4.022-.129,2.986-2.855,5.321-2.2,4.413.78s-3.115,8.563-7.139,10.251-12.978-.39-16.741,3.763a123.208,123.208,0,0,0-7.788,9.864Z" transform="translate(-1106.929 -216.065)" fill="#f0b297"/>
        <g id="Group_10399" data-name="Group 10399" transform="translate(157.316 79.063)">
          <path id="Path_33712" data-name="Path 33712" d="M1270.64,304.023a.38.38,0,0,1-.041-.759c2.919-.313,7.268-1.715,7.995-2.845.792-1.231.759-2.173-.1-2.8a.381.381,0,1,1,.447-.616c.7.509,1.667,1.682.291,3.823-1.031,1.6-6.115,2.928-8.553,3.189Z" transform="translate(-1270.259 -296.935)" fill="#e49674"/>
        </g>
        <g id="Group_10400" data-name="Group 10400" transform="translate(165.557 75.364)">
          <path id="Path_33713" data-name="Path 33713" d="M1281.469,300.1a.381.381,0,0,1,0-.761,5.548,5.548,0,0,0,4.829-2.321c.733-.924,1.326-1.752,1.849-2.481a16.394,16.394,0,0,1,1.888-2.364.38.38,0,1,1,.519.556,16.1,16.1,0,0,0-1.788,2.25c-.528.737-1.127,1.573-1.871,2.511A6.306,6.306,0,0,1,1281.469,300.1Z" transform="translate(-1281.088 -292.074)" fill="#e49674"/>
        </g>
        <g id="Group_10401" data-name="Group 10401" transform="translate(167.439 74.716)">
          <path id="Path_33714" data-name="Path 33714" d="M1283.941,299.381a.381.381,0,0,1-.314-.6,14.077,14.077,0,0,0,.926-2.262c.649-1.812,1.457-4.066,2.482-5.178a.38.38,0,1,1,.559.515c-.921,1-1.7,3.172-2.325,4.918a13.465,13.465,0,0,1-1.015,2.438A.381.381,0,0,1,1283.941,299.381Z" transform="translate(-1283.561 -291.222)" fill="#e49674"/>
        </g>
        <path id="Path_33715" data-name="Path 33715" d="M1200.865,308.059c2.043-2.336,4.186-5.84,6.813-3.6s10.22,7.3,11.972,8.663,3.893,2.141,1.751,5.159-22.29,29.3-31.147,37.961-16.646,10.318-29.1-3.8c-2.433,5.257-10.511,8.371-11.874,13.921s-1.038,22.809-1.038,22.809l-47.761-.26s9.128-36.036,13.217-46.646,5.9-20.548,14.84-35.578c3.756-6.313,6.994-8.472,8.942-16.552.292-1.751.421-3.345,2.854-2.664s16.83,4.72,18.292,5.5-.488,4.282-2.531,11.972c6.327,5.062,13.918,15.672,17.714,20.637s7.4,8.078,10.708,4.38S1200.865,308.059,1200.865,308.059Z" transform="translate(-1072.369 -215.572)" fill="#d58000"/>
        <g id="Group_10402" data-name="Group 10402" transform="translate(68.544 114.494)">
          <path id="Path_33716" data-name="Path 33716" d="M1174.336,366.641a.379.379,0,0,1-.272-.114c-4.172-4.269-18.3-19.762-20.372-22.421a.38.38,0,0,1,.6-.467c2.059,2.647,16.152,18.1,20.315,22.355a.38.38,0,0,1-.272.647Z" transform="translate(-1153.611 -343.492)" fill="#945b07"/>
        </g>
        <g id="Group_10403" data-name="Group 10403" transform="translate(75.454 85.975)">
          <path id="Path_33717" data-name="Path 33717" d="M1171.832,310.574a.377.377,0,0,1-.25-.094,16.353,16.353,0,0,0-8.511-3.7.381.381,0,0,1,0-.761,16.942,16.942,0,0,1,9.011,3.89.381.381,0,0,1-.25.667Z" transform="translate(-1162.691 -306.017)" fill="#945b07"/>
        </g>
        <path id="Path_33718" data-name="Path 33718" d="M1148.423,257.017c1.817-.129,3.6-2.207,6.329-9.864a8.623,8.623,0,0,1,1.686-11.68c3.5-2.726,5.971.131,7.787,3.375s2.986,3.634,4.544,2.725,6.052-7.5.862-21.385c-.845-2.466.953-4.832,5.107-4.442s8.695.39,12.2-2.985c1.037-1.558-1.231-5.8-9.316-9.411-6.2-2.771-26.023-5.851-37.276,5.906-7.771,8.118-9.025,15.639-8.785,20.8C1131.941,238.239,1138.3,251.155,1148.423,257.017Z" transform="translate(-1079.791 -194.898)" fill="#151748"/>
        <g id="Group_10404" data-name="Group 10404" transform="translate(73.67 50.446)">
          <path id="Path_33719" data-name="Path 33719" d="M1165.722,263.311a5.757,5.757,0,0,1-5.335-3.428.381.381,0,0,1,.681-.341c1.43,2.86,4.306,3.738,7.692,2.349a.381.381,0,1,1,.289.7A8.82,8.82,0,0,1,1165.722,263.311Z" transform="translate(-1160.347 -259.332)" fill="#e49674"/>
        </g>
        <g id="Group_10405" data-name="Group 10405" transform="translate(103.489 53.074)">
          <path id="Path_33720" data-name="Path 33720" d="M1204.355,268.445a.369.369,0,0,1-.049,0c-2.031-.268-3.851-2.775-4.753-5.141a.381.381,0,0,1,.712-.271c.8,2.086,2.429,4.433,4.139,4.658a.381.381,0,0,1-.049.758Z" transform="translate(-1199.528 -262.784)" fill="#a33939"/>
        </g>
        <g id="Group_10406" data-name="Group 10406" transform="translate(81.685 65.145)">
          <path id="Path_33721" data-name="Path 33721" d="M1178.851,282.716l-.043,0a19.722,19.722,0,0,1-7.784-3.388.381.381,0,0,1,.471-.6,19.12,19.12,0,0,0,7.4,3.231.381.381,0,0,1-.044.759Z" transform="translate(-1170.879 -278.646)" fill="#e49674"/>
        </g>
      </g>
      <g id="Group_10410" data-name="Group 10410" transform="translate(1309.585 195.722)">
        <path id="Rectangle_3103" data-name="Rectangle 3103" d="M12.278,0H44.047A12.279,12.279,0,0,1,56.326,12.279V44.567A12.278,12.278,0,0,1,44.048,56.845H12.279A12.279,12.279,0,0,1,0,44.566V12.278A12.278,12.278,0,0,1,12.278,0Z" fill="#f1efef"/>
        <path id="Path_33725" data-name="Path 33725" d="M1409.089,293.466a4.555,4.555,0,0,1-4.555,4.555h0a4.557,4.557,0,0,1-4.556-4.555V273.991a4.557,4.557,0,0,1,4.556-4.556h0a4.555,4.555,0,0,1,4.555,4.556Z" transform="translate(-1389.985 -249.742)" fill="#84a5de"/>
        <path id="Path_33726" data-name="Path 33726" d="M1425.821,291.173a4.557,4.557,0,0,1-4.558,4.555h0a4.557,4.557,0,0,1-4.556-4.555V264.4a4.556,4.556,0,0,1,4.556-4.556h0a4.557,4.557,0,0,1,4.558,4.556Z" transform="translate(-1393.983 -247.449)" fill="#32548f"/>
        <path id="Path_33727" data-name="Path 33727" d="M1442.552,289.1a4.557,4.557,0,0,1-4.555,4.556h0a4.556,4.556,0,0,1-4.556-4.556V255.7a4.556,4.556,0,0,1,4.556-4.555h0a4.557,4.557,0,0,1,4.555,4.555Z" transform="translate(-1397.981 -245.371)" fill="#151748"/>
      </g>
    </g>
    <g id="Group_10539" data-name="Group 10539" transform="translate(-100.063 806.015) rotate(-30)">
      <path id="Path_33920" data-name="Path 33920" d="M1924.9,4670.061a3.054,3.054,0,0,1-.208.468.9.9,0,0,1-.317.387c-.142.076-.358.022-.525-.221a1.05,1.05,0,0,1-.166-.465,1.371,1.371,0,0,1,.067-.589,1.345,1.345,0,0,1,.316-.5,1.011,1.011,0,0,1,.418-.251c.28-.08.48.018.543.17a.907.907,0,0,1,0,.5A3.058,3.058,0,0,1,1924.9,4670.061Z" transform="translate(-155.198 -4364.186)" fill="#f2f2f2" style="mix-blend-mode: soft-light;isolation: isolate"/>
      <path id="Path_33921" data-name="Path 33921" d="M1918.388,4668.843c-.027-.116-.05-.22-.068-.312s-.032-.174-.043-.256a1.829,1.829,0,0,1-.013-.287c0-.108.016-.227.031-.35a4.008,4.008,0,0,0,.057-.708.689.689,0,0,0-.192-.5.268.268,0,0,0-.368-.016,1.621,1.621,0,0,0-.418.525,2.64,2.64,0,0,0-.335,1.041,2.1,2.1,0,0,0,.045.649,2.822,2.822,0,0,0,.215.6,3.435,3.435,0,0,0,.306.515,4.13,4.13,0,0,0,.341.416,5.4,5.4,0,0,0,.62.572c.361.278.577.38.7.188s.1-.4-.094-.726c-.095-.161-.236-.347-.391-.571a3.734,3.734,0,0,1-.226-.366A1.946,1.946,0,0,1,1918.388,4668.843Z" transform="translate(-150.451 -4362.394)" fill="#d1785e"/>
      <g id="Group_10538" data-name="Group 10538" transform="translate(1756.141 297.531)">
        <path id="Path_33739" data-name="Path 33739" d="M1940.941,4644.242a8.152,8.152,0,0,1,2.879-.134,8.247,8.247,0,0,1,2.763.87c.859.457.479,1.33-.379,1.123a23.463,23.463,0,0,0-2.558-.486,22.762,22.762,0,0,0-2.593-.189C1940.173,4645.4,1940,4644.464,1940.941,4644.242Z" transform="translate(-1923.21 -4643.998)" fill="#1a1a1a"/>
        <path id="Path_33740" data-name="Path 33740" d="M1886.665,4644.065a8.146,8.146,0,0,0-2.88-.073,8.238,8.238,0,0,0-2.746.929c-.85.475-.452,1.339.4,1.114a23.347,23.347,0,0,1,2.548-.541,22.646,22.646,0,0,1,2.588-.245C1887.456,4645.21,1887.608,4644.268,1886.665,4644.065Z" transform="translate(-1880.567 -4643.898)" fill="#1a1a1a"/>
        <g id="Group_10435" data-name="Group 10435" transform="translate(1.255 3.166)">
          <g id="Group_10433" data-name="Group 10433">
            <path id="Path_33741" data-name="Path 33741" d="M1888.9,4659.158l-.013-2.246a1.971,1.971,0,0,0-1.976-1.955h0a1.971,1.971,0,0,0-1.955,1.977l.012,2.246C1884.97,4660.261,1888.9,4660.239,1888.9,4659.158Z" transform="translate(-1884.952 -4654.957)" fill="#1a1a1a"/>
          </g>
          <g id="Group_10434" data-name="Group 10434" transform="translate(17.454)">
            <path id="Path_33742" data-name="Path 33742" d="M1945.928,4659.158l.012-2.246a1.971,1.971,0,0,1,1.976-1.955h0a1.971,1.971,0,0,1,1.955,1.977l-.012,2.246C1949.853,4660.261,1945.922,4660.239,1945.928,4659.158Z" transform="translate(-1945.928 -4654.957)" fill="#1a1a1a"/>
          </g>
        </g>
      </g>
      <path id="Path_33922" data-name="Path 33922" d="M1906.777,4694.185a10.262,10.262,0,0,0,10.188-1.454c.438-.348-.181-.959-.615-.615a9.407,9.407,0,0,1-9.342,1.23.437.437,0,0,0-.534.3.445.445,0,0,0,.3.535Z" transform="translate(-142.905 -4380.709)" fill="#a33939"/>
    </g>
    <path id="Path_33933" data-name="Path 33933" d="M1791.125,4889.789a8.063,8.063,0,0,0-2.55-.7,7.98,7.98,0,0,0-2.636.161,6,6,0,0,0-2.371,1.1c.879-.038,1.691-.09,2.5-.086a22.861,22.861,0,0,1,2.38.117,22.389,22.389,0,0,1,2.355.37C1791.593,4890.915,1791.922,4890.167,1791.125,4889.789Z" transform="matrix(0.966, -0.259, 0.259, 0.966, -1552.958, -3976.36)" fill="#1a1a1a"/>
    <g id="Group_10543" data-name="Group 10543" transform="matrix(0.891, -0.454, 0.454, 0.891, 1436.077, 290.773)">
      <path id="Path_33893-2" data-name="Path 33893" d="M1793.064,4903.189a3.4,3.4,0,0,0-2.036-3.332h0a1.868,1.868,0,0,0-2.249,1.37l-.209.865C1788.328,4903.087,1792.8,4904.251,1793.064,4903.189Z" transform="translate(-1786.87 -4899.728)" fill="#1a1a1a"/>
      <path id="Path_33894-2" data-name="Path 33894" d="M1787.221,4899.832a3.521,3.521,0,0,0-2.56-.094,1.938,1.938,0,0,1-2.005-.125,1.99,1.99,0,0,0,1.978.877,2.306,2.306,0,0,1,1.754.115Z" transform="translate(-1782.656 -4899.536)" fill="#1a1a1a"/>
    </g>
  </g>
</svg>
