<svg id="Education" xmlns="http://www.w3.org/2000/svg" width="46.206" height="43.098" viewBox="0 0 46.206 43.098">
  <path id="Path_1743" data-name="Path 1743" d="M12.152,37.409H2.158c-.537,0-.717,0-.717-.973V34.123a.721.721,0,0,0-1.443,0v2.314a2.061,2.061,0,0,0,2.16,2.416h9.993a.721.721,0,1,0,0-1.443ZM.72,31.852a.721.721,0,0,0,.721-.721V7.281l21.837.038v12.03a.721.721,0,0,0,1.443,0V7.318a1.472,1.472,0,0,0-1.457-1.485H2.054l3.3-2.79H26.325A1.154,1.154,0,0,1,27.479,4.2V18.839a.721.721,0,0,0,1.443,0V4.2a2.6,2.6,0,0,0-2.6-2.6H5.09a.721.721,0,0,0-.466.17L.338,5.4a1.074,1.074,0,0,0-.233.363A.708.708,0,0,0,0,6.121V31.133a.721.721,0,0,0,.721.719Z" transform="translate(0.033 -1.6)" fill="#072251"/>
  <path id="Path_1744" data-name="Path 1744" d="M26.345,19.173a.721.721,0,0,0,.722-.721V5.954a2.149,2.149,0,0,0-2.142-2.146L6.89,3.77h0a.721.721,0,0,0,0,1.443l18.035.038a.7.7,0,0,1,.7.7v12.5a.721.721,0,0,0,.718.721Zm9.937,13.735a.721.721,0,0,0-.722.722v6a.866.866,0,0,1-.1.405c-.406.774-2.33,3.3-10.026,3.3s-9.62-2.526-10.031-3.3a.866.866,0,0,1-.1-.4v-5.7a.721.721,0,1,0-1.443,0v5.693a2.324,2.324,0,0,0,.258,1.076c.648,1.225,3.039,4.075,11.312,4.075S36.1,41.932,36.745,40.709A2.309,2.309,0,0,0,37,39.631v-6a.721.721,0,0,0-.722-.722Z" transform="translate(-0.203 -1.682)" fill="#072251"/>
  <path id="Path_1745" data-name="Path 1745" d="M45.846,27.386,26.758,21.01a.7.7,0,0,0-.449,0L4.807,27.9A.722.722,0,0,0,4.8,29.272l20.106,6.8a.731.731,0,0,0,.231.038.723.723,0,0,0,.242-.042l14.758-5.27v3.463a2.426,2.426,0,0,0-1.725,2.315v1.455a2.432,2.432,0,0,0,4.864,0V36.57a2.428,2.428,0,0,0-1.7-2.309V30.278l4.282-1.529a.721.721,0,0,0-.014-1.364Zm-4.02,10.641a.989.989,0,1,1-1.978,0V36.57a.989.989,0,0,1,1.978,0Zm-1.074-8.985L25.444,27.39a.721.721,0,1,0-.154,1.434l12.341,1.331L25.126,34.623,7.335,28.608l19.19-6.157,16.884,5.64Z" transform="translate(-0.132 -2.336)" fill="#072251"/>
</svg>
