<svg xmlns="http://www.w3.org/2000/svg" width="65.398" height="46.713" viewBox="0 0 65.398 46.713">
  <g id="IT_sector" data-name="IT sector" transform="translate(-4 -12)">
    <path id="Path_1746" data-name="Path 1746" d="M62.391,45.543V13.168A1.168,1.168,0,0,0,61.223,12H12.175a1.168,1.168,0,0,0-1.168,1.168V45.543l-6.84,11.4a1.168,1.168,0,0,0,1,1.769H68.23a1.168,1.168,0,0,0,1-1.769ZM13.343,14.336H60.055V44.7H13.343ZM7.23,56.377l5.606-9.343H60.562l5.606,9.343Z" transform="translate(0 0)" fill="#072251"/>
    <path id="Path_1747" data-name="Path 1747" d="M34.7,15.339a1.226,1.226,0,0,0-.339.829A1.2,1.2,0,0,0,34.7,17a1.172,1.172,0,1,0,0-1.658Zm-12.6,33.528A1.168,1.168,0,0,0,20.926,47.7h-3.5a1.168,1.168,0,1,0,0,2.336h3.5A1.168,1.168,0,0,0,22.094,48.867Zm8.175,0A1.168,1.168,0,0,0,29.1,47.7H25.6a1.168,1.168,0,1,0,0,2.336h3.5A1.168,1.168,0,0,0,30.269,48.867Zm3.5,1.168h3.5a1.168,1.168,0,1,0,0-2.336h-3.5a1.168,1.168,0,1,0,0,2.336Zm12.846-1.168A1.168,1.168,0,0,0,45.451,47.7h-3.5a1.168,1.168,0,0,0,0,2.336h3.5A1.168,1.168,0,0,0,46.618,48.867Zm8.175,0A1.168,1.168,0,0,0,53.625,47.7h-3.5a1.168,1.168,0,1,0,0,2.336h3.5A1.168,1.168,0,0,0,54.793,48.867Zm-39.122,3.5h-3.5a1.168,1.168,0,0,0,0,2.336h3.5a1.168,1.168,0,0,0,0-2.336Zm8.175,0h-3.5a1.168,1.168,0,1,0,0,2.336h3.5a1.168,1.168,0,0,0,0-2.336Zm18.685,0H28.517a1.168,1.168,0,0,0,0,2.336H42.531a1.168,1.168,0,0,0,0-2.336Zm8.175,0H47.2a1.168,1.168,0,0,0,0,2.336h3.5a1.168,1.168,0,0,0,0-2.336Zm4.671,0a1.168,1.168,0,0,0,0,2.336h3.5a1.168,1.168,0,0,0,0-2.336Z" transform="translate(1.175 0.503)" fill="#072251"/>
  </g>
</svg>
