<svg xmlns="http://www.w3.org/2000/svg" width="30.654" height="42.208" viewBox="0 0 30.654 42.208">
  <path id="NGO" d="M28.032,0a.9.9,0,0,0-.9.9V13.412H19.439a.9.9,0,0,0-.9.9v9.637h0V41.31a.9.9,0,0,0,.9.9H48.3a.9.9,0,0,0,.9-.9V24.01h0v-9.7a.9.9,0,0,0-.9-.9H40.6v-.938q0-.009,0-.018V.9a.9.9,0,0,0-.9-.9Zm.9,1.8h9.878V18.261H28.929Zm4.939,6.076A3.425,3.425,0,1,0,37.293,11.3,3.438,3.438,0,0,0,33.868,7.872Zm0,1.8A1.629,1.629,0,1,1,32.24,11.3,1.615,1.615,0,0,1,33.868,9.668Zm-13.531,5.54h6.8v3.053H25.912a.9.9,0,0,0,0,1.8H41.824a.9.9,0,1,0,0-1.8H40.6V15.207h6.8V23.05H20.337Zm0,9.7H47.4V40.413H20.337Z" transform="translate(-18.541)" fill="#072251"/>
</svg>
