<svg xmlns="http://www.w3.org/2000/svg" width="41.449" height="41.537" viewBox="0 0 41.449 41.537">
  <g id="service" transform="translate(-0.6 -0.5)">
    <path id="Path_2356" data-name="Path 2356" d="M17.973,30.2a4.567,4.567,0,0,0-1.235-3.087L11.271,21.65a1.1,1.1,0,0,0-1.852.617,10.053,10.053,0,0,0-.176,4.409l.088.176,1.94,1.94-.617.088a3.2,3.2,0,0,1-2.293-.97L6.068,25.618V20.239a3.97,3.97,0,0,0-2.381-3.616,6.542,6.542,0,0,0-2.2-.441H.6V26.941a3.2,3.2,0,0,0,.97,2.293l6.35,6.35v.265H5.539v6.7H20v-6.7H17.973ZM2.717,28.088a1.46,1.46,0,0,1-.441-1.058V18.122c.176.088.441.088.617.176a2.2,2.2,0,0,1,1.323,1.94v6.173l2.822,2.822a5.145,5.145,0,0,0,3.616,1.5l2.2-.353a1.076,1.076,0,0,0,.794-.706,1.159,1.159,0,0,0-.265-1.058l-2.646-2.646a6.174,6.174,0,0,1,0-2.2l4.586,4.586a2.538,2.538,0,0,1,.794,1.852v5.82H9.507V35.76a1.8,1.8,0,0,0-.529-1.323Zm15.433,9.7v3.175H7.3V37.788H18.149ZM38.874,16.711a3.97,3.97,0,0,0-2.381,3.616v5.379L34.2,28a3.2,3.2,0,0,1-2.293.97l-.617-.088,1.94-1.94.088-.176a9.241,9.241,0,0,0-.176-4.5,1.043,1.043,0,0,0-.794-.794,1.159,1.159,0,0,0-1.058.265l-5.468,5.468a4.407,4.407,0,0,0-1.235,3.087v5.82H22.559v6.7H37.022v-6.7H34.729V35.76l6.35-6.35a3.2,3.2,0,0,0,.97-2.293V16.27h-.882A6.245,6.245,0,0,0,38.874,16.711Zm-3.7,21.077v3.175H24.323V37.788H35.17ZM40.2,27.029a1.46,1.46,0,0,1-.441,1.058l-6.35,6.35a1.8,1.8,0,0,0-.529,1.323v.265H26.263V30.2a2.538,2.538,0,0,1,.794-1.852l4.586-4.586a6.174,6.174,0,0,1,0,2.2L29,28.617a1.159,1.159,0,0,0-.265,1.058,1.076,1.076,0,0,0,.794.706l2.117.353h.176a5,5,0,0,0,3.616-1.5l2.822-2.822V20.327a2.019,2.019,0,0,1,1.323-1.94,1.635,1.635,0,0,1,.617-.176v8.819ZM21.5,7.1a5.725,5.725,0,0,0-6,5.468A5.629,5.629,0,0,0,17,16.711a5.8,5.8,0,0,0,3.968,1.852h.265A5.787,5.787,0,0,0,26.968,13.1,5.725,5.725,0,0,0,21.5,7.1Zm-.441,9.7a4.046,4.046,0,0,1-2.734-1.323,4.16,4.16,0,0,1-1.058-2.822,3.976,3.976,0,0,1,3.968-3.792h.176A3.972,3.972,0,0,1,21.06,16.8Z" transform="translate(0 -0.778)" fill="#072251"/>
    <path id="Path_2357" data-name="Path 2357" d="M34.005,13.9v-3.88L31.712,9.5a8.517,8.517,0,0,0-.97-2.293l1.235-2.028L29.155,2.44,27.127,3.675a7.273,7.273,0,0,0-2.293-.882L24.3.5h-3.88L19.9,2.793a8.517,8.517,0,0,0-2.293.97L15.574,2.528,12.928,5.35l1.235,2.028a10.535,10.535,0,0,0-.97,2.293L10.9,10.2v3.88l2.293.529a8.517,8.517,0,0,0,.97,2.293l-1.235,2.028,2.822,2.734,2.028-1.235a7.273,7.273,0,0,0,2.293.882l.529,2.293h3.88l.529-2.293a8.517,8.517,0,0,0,2.293-.97l2.028,1.235,2.734-2.822-1.235-2.028a7.273,7.273,0,0,0,.882-2.293Zm-3.792-.882-.088.529a8.006,8.006,0,0,1-1.058,2.734l-.265.441,1.058,1.764-.794.794L27.3,18.226l-.441.353a7.791,7.791,0,0,1-2.646,1.146l-.529.088-.441,2.028H22.1l-.529-2.028-.529-.088a8.006,8.006,0,0,1-2.734-1.058l-.441-.265L16.1,19.46l-.882-.882,1.058-1.764-.353-.441a7.791,7.791,0,0,1-1.146-2.646l-.088-.529-2.028-.441V11.612l2.028-.529.088-.529A8.006,8.006,0,0,1,15.839,7.82l.265-.441L15.045,5.615l.794-.794L17.6,5.879l.441-.353A7.791,7.791,0,0,1,20.689,4.38l.529-.088.441-2.028h1.146l.529,2.028.529.088A8.006,8.006,0,0,1,26.6,5.439l.441.265L28.8,4.645l.794.794L28.538,7.2l.353.441a7.791,7.791,0,0,1,1.146,2.646l.088.529,2.028.441v1.146Z" transform="translate(-1.217 0)" fill="#072251"/>
  </g>
</svg>
