<svg xmlns="http://www.w3.org/2000/svg" width="37.231" height="41.083" viewBox="0 0 37.231 41.083">
  <g id="SME" transform="translate(-2 -1020.362)">
    <path id="rect7228-3-5-3-8" d="M20.615,0a3.21,3.21,0,1,0,3.21,3.21A3.217,3.217,0,0,0,20.615,0Zm0,1.284A1.908,1.908,0,0,1,22.541,3.21a1.926,1.926,0,1,1-3.851,0A1.908,1.908,0,0,1,20.615,1.284ZM18.281,6.377a3.474,3.474,0,0,0-3.443,3.493v4.253H26.393V9.869A3.474,3.474,0,0,0,22.95,6.377h-.344L20.615,8.405,18.622,6.377Zm-.14,1.341,1.58,1.61a1.268,1.268,0,0,0,1.788,0l1.58-1.61a2.139,2.139,0,0,1,2.021,2.151v2.969H16.122V9.869A2.139,2.139,0,0,1,18.141,7.718Zm1.191,7.688v1.926H10.347a3.218,3.218,0,0,0-3.212,3.21v3.851H8.419V20.541a1.909,1.909,0,0,1,1.928-1.926H30.909a1.911,1.911,0,0,1,1.931,1.926v3.851h1.284V20.541a3.22,3.22,0,0,0-3.215-3.21H20.615V15.406ZM7.674,25.677a3.3,3.3,0,1,0,3.3,3.3A3.306,3.306,0,0,0,7.674,25.677Zm25.882,0a3.3,3.3,0,1,0,3.3,3.3A3.306,3.306,0,0,0,33.557,25.677ZM7.674,26.96a2.015,2.015,0,1,1-2.014,2.016A2,2,0,0,1,7.674,26.96Zm25.882,0a2.015,2.015,0,1,1-2.014,2.016A2,2,0,0,1,33.557,26.96ZM5.4,33.379a3.4,3.4,0,0,0-3.4,3.4v4.305H13.349V36.777a3.4,3.4,0,0,0-3.4-3.4Zm25.882,0a3.4,3.4,0,0,0-3.4,3.4v4.305H39.231V36.777a3.4,3.4,0,0,0-3.4-3.4ZM5.4,34.7H9.954a2.055,2.055,0,0,1,2.074,2.074v2.984H3.321V36.777A2.055,2.055,0,0,1,5.4,34.7Zm25.882,0h4.559a2.055,2.055,0,0,1,2.074,2.074v2.984H29.2V36.777A2.055,2.055,0,0,1,31.277,34.7Z" transform="translate(0 1020.362)" fill="#072251"/>
  </g>
</svg>
